<svg xmlns="http://www.w3.org/2000/svg" width="100" height="100" id="cinema"><path style="marker:none" d="m75 966.945-9.375 2.735 4.557 12.37 8.985-2.605zm-15.104 4.297-12.24 3.516.26.52 2.344 6.381 2.084 5.469 12.24-3.516zm-17.839 5.078-10.807 3.125 4.687 12.37 10.808-3.125-2.735-7.03zm-16.406 4.688-8.984 2.604 4.166 12.5 9.375-2.734zm-4.818 15.104v37.5a4.158 4.158 0 0 0 4.167 4.167h54.167a4.158 4.158 0 0 0 4.166-4.167v-37.5zm8.334 8.333H75v12.5H29.167z" color="#000" overflow="visible" transform="translate(0 -952.362)"></path></svg>