<svg xmlns="http://www.w3.org/2000/svg" enable-background="new 0 0 64 64" viewBox="0 0 64 64" id="Cinema"><path fill="#3ca1f4" d="M57.93,5.43h-2.35v8.26H64v-2.2C64,8.15,61.27,5.43,57.93,5.43z" class="color1c243a svgShape"></path><rect width="8.42" height="9.45" x="55.58" y="15.76" fill="#3ca1f4" class="color1c243a svgShape"></rect><rect width="8.42" height="9.46" x="55.58" y="27.27" fill="#3ca1f4" class="color1c243a svgShape"></rect><rect width="8.42" height="9.46" x="55.58" y="38.79" fill="#3ca1f4" class="color1c243a svgShape"></rect><path fill="#3ca1f4" d="M55.58 58.57h2.35c3.34 0 6.07-2.73 6.07-6.07v-2.19h-8.42V58.57zM0 52.5c0 3.34 2.73 6.07 6.07 6.07h2.35v-8.26H0V52.5zM0 11.49v2.2h8.42V5.43H6.07C2.73 5.43 0 8.15 0 11.49z" class="color1c243a svgShape"></path><rect width="8.42" height="9.45" y="15.76" fill="#3ca1f4" class="color1c243a svgShape"></rect><rect width="8.42" height="9.46" y="38.79" fill="#3ca1f4" class="color1c243a svgShape"></rect><rect width="8.42" height="9.46" y="27.27" fill="#3ca1f4" class="color1c243a svgShape"></rect><path fill="#3ca1f4" d="M10.49,58.57h43.02V5.43H10.49V58.57z M24.1,20.29c0-0.37,0.2-0.71,0.52-0.9c0.32-0.19,0.71-0.19,1.03,0
		l20.28,11.72c0.32,0.19,0.52,0.53,0.52,0.89c0,0.37-0.2,0.71-0.52,0.9L25.65,44.6c-0.15,0.09-0.33,0.14-0.52,0.14
		c-0.18,0-0.35-0.05-0.52-0.14c-0.32-0.19-0.52-0.53-0.52-0.89V20.29z" class="color1c243a svgShape"></path><polygon fill="#3ca1f4" points="26.17 22.07 26.17 41.93 43.35 31.99" class="color1c243a svgShape"></polygon></svg>