<svg xmlns="http://www.w3.org/2000/svg" viewBox="0 0 1010 749.264" id="Customer"><g fill="#000000" class="color000000 svgShape"><path fill="#3ca1f4" d="M307.984 90.376C137.894 90.376 0 210.376 0 358.305c0 148.033 137.894 267.99 307.984 267.99 9.784 0 19.568-.439 29.143-1.254-.502 69.848-80.78 124.223-80.78 124.223C457.21 681.82 537.612 562.03 565.627 505c31.692-42.125 50.299-92.446 50.299-146.696 0-147.93-137.936-267.93-307.942-267.93zm151.692 354.27h-311.37c-19.025 0-19.025-22.432 0-22.432h311.37c19.025 0 19.025 22.432 0 22.432zm0-78.523h-311.37c-19.025 0-19.025-22.453 0-22.453h311.37c19.025 0 19.025 22.453 0 22.453zm0-78.543h-311.37c-19.025 0-19.025-22.474 0-22.474h311.37c19.025 0 19.025 22.474 0 22.474z" class="color545454 svgShape"></path><path fill="#66a6da" d="M861.694 0H598.49c-60.25 0-112.43 36.501-135.553 88.515 40.474 14.55 77.101 35.875 107.874 62.613 60.166 52.327 98.257 125.727 98.257 207.177 0 58.891-19.986 113.622-53.685 159.03-.795 1.651-1.632 3.366-2.594 5.06 50.175 38.257 115.442 75.197 200.278 103.63 0 0-102.814-69.618-87.888-155.164h136.515c81.575 0 148.306-66.73 148.306-148.326v-174.25C1010 66.689 943.269 0 861.694 0zm16.223 335.747l-69.365-48.209-69.365 48.209 24.459-80.843-67.316-51.051 84.46-1.736 27.762-79.776 27.721 79.776 84.458 1.736-67.315 51.05 24.501 80.844z" class="colordab466 svgShape"></path></g></svg>