<svg xmlns="http://www.w3.org/2000/svg" viewBox="0 0 64 64" id="DiscountVoucher"><path fill="#212529" d="M25.863 10.314 20 14.417l-5.863-4.1A3.265 3.265 0 0 0 9 12.989V17h22v-4.011a3.265 3.265 0 0 0-5.137-2.675Z" class="color212529 svgShape"></path><path fill="#3ca1f4" d="M17 12h6v5h-6z" class="color343a40 svgShape"></path><path fill="#008cff" d="M61 24.5v-6a2 2 0 0 0-2-2H5a2 2 0 0 0-2 2v6a7.5 7.5 0 0 1 0 15v5a3 3 0 0 0 3 3h52a3 3 0 0 0 3-3v-5a7.5 7.5 0 0 1 0-15Z" class="colorffd100 svgShape"></path><circle cx="36" cy="26" r="3" fill="#ffffff" class="colorffffff svgShape"></circle><circle cx="48" cy="38" r="3" fill="#ffffff" class="colorffffff svgShape"></circle><path fill="#ffffff" d="M34.5 39.5a2.109 2.109 0 0 1 .009-2.991l12.077-11.923a2 2 0 0 1 2.828 2.828L37.491 39.491a2.109 2.109 0 0 1-2.991.009Z" class="colorffffff svgShape"></path><path fill="#212529" d="M17 16.5h6v31h-6z" class="color212529 svgShape"></path></svg>