<svg xmlns="http://www.w3.org/2000/svg" viewBox="0 0 48 48" id="feedback"><path d="M45 1H17a2 2 0 0 0-2 2v20a2 2 0 0 0 2 2h18l8 4v-4h2a2 2 0 0 0 2-2V3a2 2 0 0 0-2-2Zm-8.34 13L31 19.66 25.34 14A4 4 0 0 1 31 8.34 4 4 0 1 1 36.66 14Z" fill="#000000" class="color000000 svgShape"></path><path d="M13 23v-4H3a2 2 0 0 0-2 2v20a2 2 0 0 0 2 2h2v4c8.08-4 7.85-4 8-4h18.05a2 2 0 0 0 2-2V27H17a4 4 0 0 1-4-4ZM8 33a2 2 0 1 1 2-2 2 2 0 0 1-2 2Zm18-4a2 2 0 1 1-2 2 2 2 0 0 1 2-2Zm-7 2a2 2 0 1 1-2-2 2 2 0 0 1 2 2Z" fill="#000000" class="color000000 svgShape"></path></svg>