<svg xmlns="http://www.w3.org/2000/svg" width="128" height="128" viewBox="0 0 33.867 33.867" id="film-strip"><path fill="#00a1ff" d="m 5.02708,1.020274 h 23.8125 c 1.4658,0 2.64584,1.18004 2.64584,2.64583 v 26.53445 c 0,1.465798 -1.18004,2.645838 -2.64584,2.645838 H 5.02708 c -1.46579,0 -2.64583,-1.18004 -2.64583,-2.645838 V 3.666104 c 0,-1.46579 1.18004,-2.64583 2.64583,-2.64583 z" paint-order="fill markers stroke"></path><path fill="#a8d0ff" d="m 10.66188,28.693674 c -0.7329,0 -1.32292,0.59002 -1.32292,1.32292 v 2.829798 H 24.5277 v -2.829798 c 0,-0.7329 -0.59002,-1.32292 -1.32292,-1.32292 z" paint-order="fill markers stroke"></path><path fill="#fff" d="m 10.66188,8.507314 c -0.7329,0 -1.32292,0.59002 -1.32292,1.32291 v 14.28595 c 0,0.7329 0.59002,1.32292 1.32292,1.32292 h 12.5429 c 0.7329,0 1.32292,-0.59002 1.32292,-1.32292 V 9.830224 c 0,-0.73289 -0.59002,-1.32291 -1.32292,-1.32291 z" paint-order="fill markers stroke"></path><path fill="#a8d0ff" d="m 9.33896,1.020424 v 2.90577 c 0,0.7329 0.59002,1.32292 1.32292,1.32292 h 12.5429 c 0.7329,0 1.32292,-0.59002 1.32292,-1.32292 v -2.90577 z" paint-order="fill markers stroke"></path><path fill="#fff" d="M5.43245 11.117484c-.7329 0-1.32292.59002-1.32292 1.32291v1.51981c0 .7329.59002 1.32292 1.32292 1.32292h.50436c.73289 0 1.32291-.59002 1.32291-1.32292v-1.51981c0-.73289-.59002-1.32291-1.32291-1.32291zM5.43245 3.651414c-.7329 0-1.32292.59002-1.32292 1.32292v1.5198c0 .7329.59002 1.32292 1.32292 1.32292h.50436c.73289 0 1.32291-.59002 1.32291-1.32292v-1.5198c0-.7329-.59002-1.32292-1.32291-1.32292zM5.43245 18.583544c-.7329 0-1.32292.59002-1.32292 1.32292v1.5198c0 .7329.59002 1.32292 1.32292 1.32292h.50436c.73289 0 1.32291-.59002 1.32291-1.32292v-1.5198c0-.7329-.59002-1.32292-1.32291-1.32292zM5.43245 26.049614c-.7329 0-1.32292.59002-1.32292 1.32291v1.5198c0 .7329.59002 1.32292 1.32292 1.32292h.50436c.73289 0 1.32291-.59002 1.32291-1.32292v-1.5198c0-.73289-.59002-1.32291-1.32291-1.32291zM27.92986 11.117484c-.7329 0-1.32292.59002-1.32292 1.32291v1.51981c0 .7329.59002 1.32292 1.32292 1.32292h.50436c.7329 0 1.32292-.59002 1.32292-1.32292v-1.51981c0-.73289-.59002-1.32291-1.32292-1.32291zM27.92986 3.651414c-.7329 0-1.32292.59002-1.32292 1.32292v1.5198c0 .7329.59002 1.32292 1.32292 1.32292h.50436c.7329 0 1.32292-.59002 1.32292-1.32292v-1.5198c0-.7329-.59002-1.32292-1.32292-1.32292zM27.92986 18.583544c-.7329 0-1.32292.59002-1.32292 1.32292v1.5198c0 .7329.59002 1.32292 1.32292 1.32292h.50436c.7329 0 1.32292-.59002 1.32292-1.32292v-1.5198c0-.7329-.59002-1.32292-1.32292-1.32292zM27.92986 26.049614c-.7329 0-1.32292.59002-1.32292 1.32291v1.5198c0 .7329.59002 1.32292 1.32292 1.32292h.50436c.7329 0 1.32292-.59002 1.32292-1.32292v-1.5198c0-.73289-.59002-1.32291-1.32292-1.32291z" paint-order="fill markers stroke"></path><path fill="#06f" d="m 20.01046,21.261944 c -0.81663,0.59948 -1.9514,-0.80242 -2.96444,-0.79744 -1.01303,0.005 -2.13397,1.41796 -2.95645,0.82655 -0.82249,-0.59142 0.16013,-2.10387 -0.15765,-3.06578 -0.31778,-0.96191 -2.00798,-1.59135 -1.69968,-2.55633 0.30831,-0.96498 2.05037,-0.49784 2.867,-1.09731 0.81663,-0.59947 0.89296,-2.40147 1.906,-2.40645 1.01302,-0.005 1.10706,1.79619 1.92955,2.3876 0.82248,0.59142 2.55987,0.10717 2.87765,1.06907 0.31777,0.9619 -1.36618,1.60793 -1.67448,2.57292 -0.3083,0.96498 0.68913,2.4677 -0.1275,3.06717 z" paint-order="fill markers stroke"></path></svg>