<svg xmlns="http://www.w3.org/2000/svg" viewBox="0 0 24 24" id="Id"><path fill="none" d="M0 0h24v24H0z"></path><path fill="#3ca1f4" d="M20 5h-5.185C14.401 3.838 13.302 3 12 3s-2.401.838-2.815 2H4c-1.103 0-2 .896-2 2v12c0 1.103.897 2 2 2h16c1.103 0 2-.897 2-2V7c0-1.104-.897-2-2-2zM8 9a2 2 0 1 1-.001 4.001A2 2 0 0 1 8 9zm-3 8c0-1.841 1.159-3 3-3s3 1.159 3 3H5zm7-10c-.551 0-1-.449-1-1 0-.551.449-1 1-1s1 .449 1 1c0 .551-.449 1-1 1zm7 10h-6v-2h6v2zm0-4h-6v-2h6v2z" class="color757575 svgShape"></path></svg>