<svg xmlns="http://www.w3.org/2000/svg" viewBox="0 0 64 64" id="Language"><path fill="#a3c9e8" fill-rule="evenodd" d="M52.86 18.6 11.14 41.74v6.89a6.13 6.13 0 0 0 6.15 6.14h24.23l2.18 2.67c1.08 1.33 3.12 1.3 4.17-.05l2.03-2.62h2.95c3.41 0 6.14-2.74 6.14-6.14V24.75a6.13 6.13 0 0 0-6.14-6.15Z" class="colore8a3c1 svgShape"></path><path fill="#3ca1f4" fill-rule="evenodd" d="M46.71 5.56c3.4 0 6.15 2.74 6.15 6.15V35.6c0 3.41-2.74 6.15-6.15 6.15H22.48l-2.18 2.67c-1.08 1.33-3.12 1.3-4.17-.05l-2.03-2.62h-2.95a6.13 6.13 0 0 1-6.14-6.15V11.71a6.13 6.13 0 0 1 6.14-6.15h35.56Z" class="colorb8f5d2 svgShape"></path><path fill="#f0f3f5" fill-rule="evenodd" d="M28.93 11.74c-1.02 0-1.85.83-1.85 1.85v2.2h-6.96c-1.02 0-1.85.83-1.85 1.85s.83 1.85 1.85 1.85h11.4c-.15 3.79-1.19 6.3-2.58 8.05-.79-1.02-1.47-2.29-1.94-3.9a1.851 1.851 0 0 0-3.55 1.05c.63 2.14 1.6 3.87 2.73 5.27-.07.04-.13.09-.2.12-2.9 1.72-5.86 1.74-5.86 1.74-1.02 0-1.85.83-1.85 1.85s.83 1.85 1.85 1.85c0 0 3.9.02 7.75-2.26.36-.21.71-.44 1.07-.7.96.69 1.94 1.23 2.87 1.62 3.13 1.34 5.92 1.34 5.92 1.34 1.02 0 1.85-.83 1.85-1.85s-.83-1.85-1.85-1.85c0 0-2.05 0-4.47-1.04-.54-.23-1.08-.5-1.62-.83 1.92-2.42 3.36-5.83 3.56-10.46h2.53c1.02 0 1.85-.83 1.85-1.85s-.83-1.85-1.85-1.85h-6.95v-2.2c0-1.02-.83-1.85-1.85-1.85Z" class="colorf0f3f5 svgShape"></path></svg>