<svg xmlns="http://www.w3.org/2000/svg" xmlns:xlink="http://www.w3.org/1999/xlink" viewBox="0 0 24 24" id="personalcard"><defs><linearGradient id="a" x1="2" x2="22" y1="12" y2="12" gradientUnits="userSpaceOnUse"><stop offset="0" stop-color="#3ca1f4" class="stopColor16b0e2 svgShape"></stop><stop offset="1" stop-color="#5aacf0" class="stopColor6e5af0 svgShape"></stop></linearGradient><linearGradient id="b" x1="13.25" x2="19.75" y1="8" y2="8" xlink:href="#a"></linearGradient><linearGradient id="c" x1="14.25" x2="19.75" xlink:href="#a"></linearGradient><linearGradient id="d" x1="16.25" x2="19.75" y1="16" y2="16" xlink:href="#a"></linearGradient><linearGradient id="e" x1="6.19" x2="10.81" y1="9.482" y2="9.482" xlink:href="#a"></linearGradient><linearGradient id="f" x1="4.5" x2="12.5" y1="14.949" y2="14.949" xlink:href="#a"></linearGradient></defs><g fill="#000000" class="color000000 svgShape"><path fill="url(#a)" d="M22,6.969V17.031A3.985,3.985,0,0,1,18,21H6a3.985,3.985,0,0,1-4-3.969V6.969A3.985,3.985,0,0,1,6,3H18A3.985,3.985,0,0,1,22,6.969Z" opacity=".4"></path><path fill="url(#b)" d="M19,8.75H14a.75.75,0,0,1,0-1.5h5a.75.75,0,0,1,0,1.5Z"></path><path fill="url(#c)" d="M19,12.75H15a.75.75,0,0,1,0-1.5h4a.75.75,0,0,1,0,1.5Z"></path><path fill="url(#d)" d="M19,16.75H17a.75.75,0,0,1,0-1.5h2a.75.75,0,0,1,0,1.5Z"></path><path fill="url(#e)" d="M6.19,9.482a2.31,2.31,0,1,1,2.31,2.31A2.313,2.313,0,0,1,6.19,9.482Z"></path><path fill="url(#f)" d="M12.5,16.279a.5.5,0,0,1-.5.549H5a.5.5,0,0,1-.5-.549A3.545,3.545,0,0,1,7.7,13.108a8.835,8.835,0,0,1,1.61,0A3.545,3.545,0,0,1,12.5,16.279Z"></path></g></svg>