<svg xmlns="http://www.w3.org/2000/svg" viewBox="0 0 32 32" id="popcorn"><g fill="#000000" class="color000000 svgShape"><path d="M22.525 4.989c-.066 0-.132 0-.2.008l-.59.048-.326-.493A3.528 3.528 0 0018.5 2.992a3.472 3.472 0 00-.811.1l-.5.12-.39-.343A3.466 3.466 0 0014.5 1.99 3.514 3.514 0 0011.58 3.6l-.367.568-.663-.128A2.92 2.92 0 0010 3.99a3 3 0 00-.087 6l.12.011L23 9.99a3.08 3.08 0 002-2.5A2.521 2.521 0 0022.525 4.989zM16 25a4.92 4.92 0 01-1.274-.185L15 29.947c0 .018-.008.035-.008.053h2.018c0-.018-.009-.035-.008-.053l.273-5.132A4.92 4.92 0 0116 25z" fill="#000000" class="color000000 svgShape"></path><circle cx="16" cy="20" r="3" fill="#000000" class="color000000 svgShape"></circle><path d="M11 20a4.967 4.967 0 011.3-3.33L12.05 12H9.95l-.16-.01a5.029 5.029 0 01-1.73-.4L9.81 28.21A2 2 0 0011.8 30H13l-.34-6.3A5 5 0 0111 20zM17.77 15.34l.18-3.35-3.9.01.18 3.34a4.777 4.777 0 013.54 0zM23.33 11.99H19.95l-.25 4.68a4.936 4.936 0 01-.36 7.03L19 30h1.2a2 2 0 001.99-1.79l1.73-16.43c-.1.04-.18.07-.27.1z" fill="#000000" class="color000000 svgShape"></path></g></svg>