<svg xmlns="http://www.w3.org/2000/svg" viewBox="0 0 48 48" id="PopcornAndDrink"><path fill="#1796ff" d="M41.966 9.417a5.011 5.011 0 0 0-4.05-4.333C37.484 2.763 35.444 1 33 1s-4.484 1.763-4.916 4.084a5.011 5.011 0 0 0-4.05 4.333A4.98 4.98 0 0 0 21 14c0 .87.233 1.734.674 2.499a1 1 0 0 0 .866.501h20.92a1 1 0 0 0 .866-.501A5.013 5.013 0 0 0 45 14a4.98 4.98 0 0 0-3.034-4.583z" class="colorffde17 svgShape"></path><path fill="#60b3f7" d="M46.737 15.324A1.002 1.002 0 0 0 46 15H20a1.002 1.002 0 0 0-.996 1.086l2.6 30A1 1 0 0 0 22.6 47h20.8a1 1 0 0 0 .996-.914l2.6-30a.995.995 0 0 0-.259-.762z" class="colorf7b360 svgShape"></path><path fill="#3ca1f4" d="M9.923 16.618a1 1 0 0 0-.217-.326l-3.999-3.999a.999.999 0 1 0-1.414 1.414L8 17.414V24a1 1 0 1 0 2 0v-7c0-.13-.026-.26-.077-.382z" class="color45acd1 svgShape"></path><path fill="#003968" d="M16.723 23.309A1.002 1.002 0 0 0 16 23H2a1.002 1.002 0 0 0-.999 1.045l1 22A1 1 0 0 0 3 47h12a1 1 0 0 0 .999-.955l1-22a.995.995 0 0 0-.276-.736z" class="color006838 svgShape"></path><path fill="none" d="M0 0h48v48H0z"></path></svg>