<svg xmlns="http://www.w3.org/2000/svg" xmlns:xlink="http://www.w3.org/1999/xlink" width="1920" zoomAndPan="magnify" viewBox="0 0 1440 809.999993" height="1080" preserveAspectRatio="xMidYMid meet" version="1.0"><defs><clipPath id="b38ae7223f"><path d="M 316 80 L 1124 80 L 1124 731 L 316 731 Z M 316 80 " clip-rule="nonzero"/></clipPath><clipPath id="c751c2395c"><path d="M 303.917969 538.363281 L 997.390625 67.511719 L 1136.234375 272 L 442.757812 742.851562 Z M 303.917969 538.363281 " clip-rule="nonzero"/></clipPath><clipPath id="6bb7433b35"><path d="M 303.917969 538.363281 L 997.390625 67.511719 L 1136.234375 272 L 442.757812 742.851562 Z M 303.917969 538.363281 " clip-rule="nonzero"/></clipPath><clipPath id="b0dd7648d9"><path d="M 303.917969 538.363281 L 997.390625 67.511719 L 1136.234375 272 L 442.757812 742.851562 Z M 303.917969 538.363281 " clip-rule="nonzero"/></clipPath><clipPath id="44d8053907"><path d="M 303.917969 538.371094 L 997.382812 67.523438 L 1136.226562 272.015625 L 442.765625 742.859375 Z M 303.917969 538.371094 " clip-rule="nonzero"/></clipPath><clipPath id="88ab1956be"><path d="M 887 189 L 1008 189 L 1008 318 L 887 318 Z M 887 189 " clip-rule="nonzero"/></clipPath><clipPath id="6c970756f6"><path d="M 303.917969 538.363281 L 997.390625 67.511719 L 1136.234375 272 L 442.757812 742.851562 Z M 303.917969 538.363281 " clip-rule="nonzero"/></clipPath><clipPath id="12014d0245"><path d="M 303.917969 538.363281 L 997.390625 67.511719 L 1136.234375 272 L 442.757812 742.851562 Z M 303.917969 538.363281 " clip-rule="nonzero"/></clipPath><clipPath id="3702340a43"><path d="M 303.917969 538.363281 L 997.390625 67.511719 L 1136.234375 272 L 442.757812 742.851562 Z M 303.917969 538.363281 " clip-rule="nonzero"/></clipPath><clipPath id="632630df07"><path d="M 417 496 L 548 496 L 548 637 L 417 637 Z M 417 496 " clip-rule="nonzero"/></clipPath><clipPath id="cb35d3d07d"><path d="M 303.917969 538.363281 L 997.390625 67.511719 L 1136.234375 272 L 442.757812 742.851562 Z M 303.917969 538.363281 " clip-rule="nonzero"/></clipPath><clipPath id="03da7110ac"><path d="M 303.917969 538.363281 L 997.390625 67.511719 L 1136.234375 272 L 442.757812 742.851562 Z M 303.917969 538.363281 " clip-rule="nonzero"/></clipPath><clipPath id="82cacd1083"><path d="M 303.917969 538.363281 L 997.390625 67.511719 L 1136.234375 272 L 442.757812 742.851562 Z M 303.917969 538.363281 " clip-rule="nonzero"/></clipPath><clipPath id="1169be96d0"><path d="M 804 233 L 935 233 L 935 374 L 804 374 Z M 804 233 " clip-rule="nonzero"/></clipPath><clipPath id="64d94927d1"><path d="M 303.917969 538.363281 L 997.390625 67.511719 L 1136.234375 272 L 442.757812 742.851562 Z M 303.917969 538.363281 " clip-rule="nonzero"/></clipPath><clipPath id="a58fa294f7"><path d="M 303.917969 538.363281 L 997.390625 67.511719 L 1136.234375 272 L 442.757812 742.851562 Z M 303.917969 538.363281 " clip-rule="nonzero"/></clipPath><clipPath id="1e60051bbd"><path d="M 303.917969 538.363281 L 997.390625 67.511719 L 1136.234375 272 L 442.757812 742.851562 Z M 303.917969 538.363281 " clip-rule="nonzero"/></clipPath><clipPath id="53973397c1"><path d="M 586 392 L 683 392 L 683 522 L 586 522 Z M 586 392 " clip-rule="nonzero"/></clipPath><clipPath id="ec6f4c51dd"><path d="M 303.917969 538.363281 L 997.390625 67.511719 L 1136.234375 272 L 442.757812 742.851562 Z M 303.917969 538.363281 " clip-rule="nonzero"/></clipPath><clipPath id="3721928f82"><path d="M 303.917969 538.363281 L 997.390625 67.511719 L 1136.234375 272 L 442.757812 742.851562 Z M 303.917969 538.363281 " clip-rule="nonzero"/></clipPath><clipPath id="10e03c0748"><path d="M 303.917969 538.363281 L 997.390625 67.511719 L 1136.234375 272 L 442.757812 742.851562 Z M 303.917969 538.363281 " clip-rule="nonzero"/></clipPath><clipPath id="16a9cb5b22"><path d="M 794 416 L 798 416 L 798 424 L 794 424 Z M 794 416 " clip-rule="nonzero"/></clipPath><clipPath id="1d31d46a53"><path d="M 303.917969 538.363281 L 997.390625 67.511719 L 1136.234375 272 L 442.757812 742.851562 Z M 303.917969 538.363281 " clip-rule="nonzero"/></clipPath><clipPath id="ba4996ac2e"><path d="M 303.917969 538.363281 L 997.390625 67.511719 L 1136.234375 272 L 442.757812 742.851562 Z M 303.917969 538.363281 " clip-rule="nonzero"/></clipPath><clipPath id="b6801125e0"><path d="M 303.917969 538.363281 L 997.390625 67.511719 L 1136.234375 272 L 442.757812 742.851562 Z M 303.917969 538.363281 " clip-rule="nonzero"/></clipPath><clipPath id="c3ab7f86e3"><path d="M 714 303 L 853 303 L 853 435 L 714 435 Z M 714 303 " clip-rule="nonzero"/></clipPath><clipPath id="4cbb34f292"><path d="M 303.917969 538.363281 L 997.390625 67.511719 L 1136.234375 272 L 442.757812 742.851562 Z M 303.917969 538.363281 " clip-rule="nonzero"/></clipPath><clipPath id="0aa1ca9639"><path d="M 303.917969 538.363281 L 997.390625 67.511719 L 1136.234375 272 L 442.757812 742.851562 Z M 303.917969 538.363281 " clip-rule="nonzero"/></clipPath><clipPath id="176d71ebac"><path d="M 303.917969 538.363281 L 997.390625 67.511719 L 1136.234375 272 L 442.757812 742.851562 Z M 303.917969 538.363281 " clip-rule="nonzero"/></clipPath><clipPath id="4470e629d7"><path d="M 669 356 L 754 356 L 754 466 L 669 466 Z M 669 356 " clip-rule="nonzero"/></clipPath><clipPath id="63bb2df423"><path d="M 303.917969 538.363281 L 997.390625 67.511719 L 1136.234375 272 L 442.757812 742.851562 Z M 303.917969 538.363281 " clip-rule="nonzero"/></clipPath><clipPath id="f117fc04a8"><path d="M 303.917969 538.363281 L 997.390625 67.511719 L 1136.234375 272 L 442.757812 742.851562 Z M 303.917969 538.363281 " clip-rule="nonzero"/></clipPath><clipPath id="46e7a9eb19"><path d="M 303.917969 538.363281 L 997.390625 67.511719 L 1136.234375 272 L 442.757812 742.851562 Z M 303.917969 538.363281 " clip-rule="nonzero"/></clipPath><clipPath id="7b85c6cbc4"><path d="M 497 435 L 639 435 L 639 583 L 497 583 Z M 497 435 " clip-rule="nonzero"/></clipPath><clipPath id="2970b4a329"><path d="M 303.917969 538.363281 L 997.390625 67.511719 L 1136.234375 272 L 442.757812 742.851562 Z M 303.917969 538.363281 " clip-rule="nonzero"/></clipPath><clipPath id="3e0576582a"><path d="M 303.917969 538.363281 L 997.390625 67.511719 L 1136.234375 272 L 442.757812 742.851562 Z M 303.917969 538.363281 " clip-rule="nonzero"/></clipPath><clipPath id="3e69284b7e"><path d="M 303.917969 538.363281 L 997.390625 67.511719 L 1136.234375 272 L 442.757812 742.851562 Z M 303.917969 538.363281 " clip-rule="nonzero"/></clipPath><clipPath id="cd8a3ad9c0"><path d="M 386.753906 654.773438 L 394.542969 654.773438 L 394.542969 662.8125 L 386.753906 662.8125 Z M 386.753906 654.773438 " clip-rule="nonzero"/></clipPath><clipPath id="3ab7b8078e"><path d="M 394.519531 657.480469 C 394.386719 660.371094 393.175781 661.847656 392.371094 662.386719 C 391.765625 662.71875 391.160156 662.855469 390.421875 662.71875 C 389.484375 662.519531 387.804688 661.714844 387.265625 660.773438 C 386.660156 659.832031 386.730469 657.953125 386.996094 657.011719 C 387.199219 656.339844 387.601562 655.871094 388.207031 655.535156 C 389.011719 654.996094 390.960938 654.660156 391.902344 654.863281 C 392.574219 654.996094 393.511719 655.871094 393.511719 655.871094 " clip-rule="nonzero"/></clipPath><clipPath id="dde7c56537"><path d="M 483.496094 699.308594 L 491.253906 699.308594 L 491.253906 707.367188 L 483.496094 707.367188 Z M 483.496094 699.308594 " clip-rule="nonzero"/></clipPath><clipPath id="2319c9f7fc"><path d="M 491.238281 702.078125 C 490.230469 706.378906 489.625 706.714844 489.089844 706.980469 C 488.484375 707.25 487.878906 707.453125 487.140625 707.316406 C 486.199219 707.117188 484.519531 706.3125 483.984375 705.371094 C 483.378906 704.429688 483.445312 702.550781 483.714844 701.609375 C 483.917969 700.9375 484.453125 700.46875 484.925781 700.132812 C 485.394531 699.730469 486 699.394531 486.671875 699.324219 C 487.679688 699.257812 490.230469 700.46875 490.230469 700.46875 " clip-rule="nonzero"/></clipPath><clipPath id="9619b108b8"><path d="M 606.519531 615.546875 L 614.304688 615.546875 L 614.304688 623.589844 L 606.519531 623.589844 Z M 606.519531 615.546875 " clip-rule="nonzero"/></clipPath><clipPath id="9a70671c88"><path d="M 614.285156 618.257812 C 614.148438 621.144531 612.941406 622.625 612.136719 623.160156 C 611.53125 623.496094 610.925781 623.628906 610.1875 623.496094 C 609.246094 623.292969 607.566406 622.488281 607.03125 621.546875 C 606.425781 620.609375 606.492188 618.726562 606.761719 617.789062 C 606.964844 617.117188 607.367188 616.644531 607.96875 616.308594 C 608.777344 615.773438 610.722656 615.4375 611.664062 615.636719 C 612.335938 615.773438 613.277344 616.644531 613.277344 616.644531 " clip-rule="nonzero"/></clipPath></defs><rect x="-144" width="1728" fill="#ffffff" y="-80.999999" height="971.999992" fill-opacity="1"/><g clip-path="url(#b38ae7223f)"><g clip-path="url(#c751c2395c)"><g clip-path="url(#6bb7433b35)"><g clip-path="url(#b0dd7648d9)"><g clip-path="url(#44d8053907)"><path fill="#d62b33" d="M 1020.765625 116.398438 C 1018.976562 115.910156 1018.394531 115.171875 1018.917969 114.019531 C 1019.359375 113.105469 1020.617188 112.984375 1021.746094 113.773438 C 1024.574219 115.679688 1023.984375 117.257812 1020.765625 116.398438 Z M 1093.070312 223.523438 C 1092.789062 224.875 1090.390625 224.441406 1089.3125 222.855469 C 1088.808594 222.117188 1089.417969 221.792969 1090.882812 222.066406 C 1092.199219 222.28125 1093.207031 222.957031 1093.070312 223.523438 Z M 1116.585938 260.308594 C 1115.816406 261.273438 1114.921875 263.910156 1114.601562 266.148438 C 1114.007812 270.175781 1113.996094 270.15625 1111.96875 265.609375 C 1109.339844 259.808594 1109.457031 259.503906 1114.121094 258.949219 C 1117.019531 258.617188 1117.628906 258.96875 1116.585938 260.308594 Z M 1078.996094 223.328125 L 1101.304688 256.183594 C 1105.246094 261.988281 1103.730469 269.917969 1097.925781 273.859375 L 1061.851562 298.351562 C 1061.820312 298.894531 1061.738281 299.421875 1061.597656 299.894531 C 1060.800781 302.476562 1060.550781 302.570312 1059.609375 299.875 L 1053.9375 303.726562 C 1054.003906 303.789062 1054.066406 303.859375 1054.144531 303.910156 C 1055.1875 304.621094 1055.484375 305.574219 1054.824219 306.023438 C 1054.261719 306.402344 1052.980469 306.039062 1051.773438 305.195312 L 1005.746094 336.445312 C 1006.316406 336.808594 1006.738281 337.421875 1007.050781 338.339844 C 1008.386719 342.199219 1007.105469 342.835938 1002.652344 340.574219 C 1002 340.242188 1001.457031 339.945312 1001.003906 339.667969 L 891.066406 414.3125 C 891.4375 414.488281 891.75 414.714844 891.929688 414.976562 C 893.234375 416.902344 890.59375 417.679688 888.515625 416.042969 L 794.40625 479.941406 C 794.550781 480.511719 794.328125 481.140625 793.796875 481.503906 C 793.257812 481.867188 792.59375 481.839844 792.121094 481.492188 L 782.339844 488.132812 C 783.558594 488.574219 784.566406 489.117188 784.972656 489.671875 C 786.238281 491.417969 783.035156 492.234375 780.871094 490.722656 C 780.492188 490.460938 780.050781 490.214844 779.589844 490 L 723.691406 527.957031 C 725.144531 529.566406 726.109375 530.9375 725.886719 531.085938 C 725.589844 531.289062 723.855469 530.28125 722.082031 529.046875 L 700.007812 544.035156 C 700.148438 544.605469 699.914062 545.246094 699.382812 545.605469 C 698.847656 545.96875 698.179688 545.941406 697.703125 545.601562 L 690.992188 550.15625 C 691.125 551.492188 690.011719 552.304688 687.976562 552.203125 L 677.882812 559.058594 C 678.289062 559.472656 678.617188 559.84375 678.8125 560.132812 C 679.566406 561.242188 679.328125 562.699219 678.304688 563.394531 C 677.308594 564.070312 676.09375 564.082031 675.601562 563.359375 C 675.304688 562.917969 674.476562 562.425781 673.480469 562.046875 L 667.523438 566.089844 C 667.851562 566.160156 668.171875 566.300781 668.441406 566.5 C 669.148438 567.035156 668.820312 568.109375 667.707031 568.863281 C 666.589844 569.621094 665.457031 569.542969 665.242188 568.667969 C 665.152344 568.347656 665.144531 568 665.195312 567.671875 L 638.777344 585.609375 C 638.402344 586.59375 637.960938 586.835938 637.59375 586.410156 L 618.648438 599.277344 C 619.230469 599.5 619.929688 600.089844 620.492188 600.921875 C 621.378906 602.226562 621.90625 603.441406 621.648438 603.613281 C 621.390625 603.792969 620.160156 603.050781 618.917969 601.992188 C 618.136719 601.308594 617.640625 600.578125 617.539062 600.03125 L 458.609375 707.9375 C 452.804688 711.878906 444.875 710.363281 440.9375 704.558594 L 432.15625 691.628906 C 432.078125 691.800781 431.984375 691.957031 431.878906 692.09375 C 431.0625 693.15625 430.226562 692.875 429.589844 691.335938 C 429.128906 690.226562 429.128906 688.789062 429.558594 687.804688 L 402.304688 647.664062 C 401.292969 648.3125 399.960938 648.136719 399.335938 647.21875 C 398.597656 646.128906 399.3125 645.1875 400.425781 644.898438 L 399.292969 643.226562 C 399.148438 643.386719 398.960938 643.546875 398.75 643.691406 C 398.074219 644.148438 397.128906 643.96875 396.65625 643.273438 C 396.195312 642.59375 396.589844 641.960938 397.539062 641.910156 C 397.839844 641.894531 398.140625 641.902344 398.410156 641.929688 L 339.941406 555.816406 C 337.535156 555.214844 333.601562 552.25 334.207031 550.980469 C 334.585938 550.144531 335.71875 549.863281 337 549.976562 C 335.828125 544.992188 337.738281 539.566406 342.222656 536.519531 L 429.523438 477.246094 C 429.777344 476.761719 430.261719 476.304688 430.960938 475.828125 C 431.464844 475.488281 431.878906 475.363281 432.199219 475.429688 L 553.195312 393.277344 C 553.242188 393.121094 553.386719 393.015625 553.644531 392.96875 L 749.996094 259.652344 C 749.960938 259.625 749.929688 259.589844 749.886719 259.570312 C 749.0625 259.230469 748.988281 258.089844 749.695312 257.070312 C 750.496094 255.949219 752.21875 256.234375 753.617188 257.195312 L 869.898438 178.242188 C 870.195312 177.832031 870.597656 177.578125 871.058594 177.453125 L 977.972656 104.859375 C 977.929688 104.492188 978.121094 104.035156 978.558594 103.433594 C 979.121094 102.621094 979.820312 102.441406 980.816406 102.933594 L 981.535156 102.441406 C 987.34375 98.5 995.269531 100.015625 999.210938 105.820312 L 1021.691406 138.929688 C 1021.875 138.515625 1022.160156 138.042969 1022.589844 137.507812 C 1026.152344 133.046875 1032.171875 137.363281 1029.449219 142.40625 C 1028.136719 144.800781 1028.488281 145.722656 1031.675781 148.339844 C 1033.746094 150.019531 1035.699219 151.828125 1036.03125 152.316406 C 1037.085938 153.863281 1034.277344 154.972656 1033.015625 153.503906 C 1026.730469 146.269531 1025.914062 144.5 1026.816406 140.464844 L 1027.777344 136.167969 L 1025.445312 138.703125 C 1024.460938 139.769531 1023.53125 140.367188 1022.808594 140.574219 L 1041.523438 168.136719 C 1042.375 166.949219 1044.285156 167.089844 1045.25 168.511719 C 1045.632812 169.074219 1045.417969 169.875 1044.785156 170.308594 C 1044.320312 170.621094 1043.785156 170.734375 1043.269531 170.710938 L 1047.8125 177.398438 C 1047.371094 176.410156 1047.324219 175.507812 1047.78125 175.199219 C 1048.382812 174.789062 1049.894531 175.355469 1051.136719 176.40625 C 1052.609375 177.667969 1052.789062 178.757812 1051.65625 179.53125 C 1050.878906 180.054688 1049.734375 179.773438 1048.851562 178.929688 L 1075.550781 218.253906 C 1075.980469 218.113281 1076.5 218 1077.117188 217.925781 C 1079.867188 217.609375 1080.496094 218.0625 1080.234375 220.214844 C 1080.097656 221.496094 1079.605469 222.574219 1078.996094 223.328125 Z M 1081.433594 303.601562 C 1080.75 304.0625 1079.398438 303.226562 1078.402344 301.71875 C 1076.964844 299.570312 1077.0625 299.238281 1079 300.019531 C 1080.328125 300.566406 1081.679688 301.402344 1082.039062 301.890625 C 1082.367188 302.375 1082.109375 303.140625 1081.433594 303.601562 Z M 1070.902344 305.660156 C 1070.574219 307.1875 1069.800781 307.375 1068.257812 306.324219 C 1065.449219 304.414062 1065.839844 302.539062 1068.9375 303.0625 C 1070.632812 303.378906 1071.203125 304.125 1070.902344 305.660156 Z M 1038.933594 337.5 C 1036.894531 337.96875 1036.519531 337.773438 1037.761719 336.84375 C 1039.445312 335.59375 1040.042969 330.683594 1039.183594 325.332031 C 1038.941406 323.765625 1039.589844 324.085938 1041.117188 326.199219 C 1044.121094 330.378906 1042.925781 336.539062 1038.933594 337.5 Z M 1033.582031 341.300781 C 1032.898438 341.761719 1031.984375 341.5625 1031.507812 340.867188 C 1031.035156 340.167969 1031.414062 339.574219 1032.367188 339.515625 C 1033.328125 339.464844 1034.265625 339.648438 1034.460938 339.933594 C 1034.660156 340.230469 1034.261719 340.839844 1033.582031 341.300781 Z M 980.550781 370.628906 C 978.546875 371.285156 977.277344 370.921875 977.246094 369.683594 C 977.210938 368.203125 978.457031 367.714844 981.785156 367.859375 C 986.5 368.058594 986.203125 368.75 980.550781 370.628906 Z M 963.328125 380.308594 C 962.667969 380.757812 961.738281 380.59375 961.292969 379.941406 C 960.863281 379.304688 961.050781 378.378906 961.714844 377.929688 C 962.390625 377.472656 963.320312 377.636719 963.753906 378.269531 C 964.195312 378.925781 964.003906 379.851562 963.328125 380.308594 Z M 925.609375 404.757812 C 923.257812 404.355469 922.832031 402.601562 924.75 401.300781 C 925.765625 400.609375 927.121094 400.855469 927.789062 401.839844 C 929.050781 403.699219 927.933594 405.191406 925.609375 404.757812 Z M 914.160156 411.941406 C 913.859375 412.148438 912.925781 412.019531 912.0625 411.644531 C 911.191406 411.269531 911.074219 410.585938 911.792969 410.097656 C 912.511719 409.609375 913.445312 409.734375 913.894531 410.398438 C 914.34375 411.058594 914.457031 411.742188 914.160156 411.941406 Z M 875.304688 447.042969 C 875.003906 447.246094 874.058594 447.09375 873.1875 446.71875 C 872.324219 446.347656 872.210938 445.65625 872.917969 445.175781 C 873.644531 444.679688 874.578125 444.816406 875.023438 445.472656 C 875.472656 446.132812 875.601562 446.839844 875.304688 447.042969 Z M 843.753906 466.703125 C 843.78125 467.648438 842.996094 468.976562 841.972656 469.671875 C 840.957031 470.363281 840.109375 470.144531 840.074219 469.199219 C 840.054688 468.257812 840.859375 466.945312 841.871094 466.253906 C 842.894531 465.558594 843.726562 465.765625 843.753906 466.703125 Z M 830.1875 460.898438 C 830.042969 462.101562 831.203125 465.355469 832.765625 468.113281 C 834.320312 470.882812 834.851562 472.835938 833.964844 472.472656 C 832.210938 471.777344 826.011719 461.574219 826.351562 459.933594 C 826.800781 457.757812 830.433594 458.667969 830.1875 460.898438 Z M 812.34375 475.980469 C 812.441406 478.34375 811.496094 478.539062 810.074219 476.449219 C 809.378906 475.417969 809.59375 474.539062 810.558594 474.5 C 811.535156 474.433594 812.339844 475.105469 812.34375 475.980469 Z M 815.039062 484.445312 C 812.300781 486.253906 808.289062 485.839844 808.804688 483.816406 C 809.105469 482.675781 810.726562 482.226562 812.953125 482.671875 C 815.328125 483.148438 816.058594 483.753906 815.039062 484.445312 Z M 790.503906 487.210938 C 789.945312 488.53125 788.902344 490.007812 788.246094 490.453125 C 787.5625 490.917969 787.484375 490.203125 788.050781 488.878906 C 788.636719 487.550781 789.675781 486.113281 790.347656 485.65625 C 791.023438 485.199219 791.085938 485.886719 790.503906 487.210938 Z M 775.148438 508.054688 C 774.625 509.769531 773.96875 510.359375 773.425781 509.5625 C 772.453125 508.128906 773.652344 504.859375 775.050781 505.128906 C 775.566406 505.195312 775.597656 506.535156 775.148438 508.054688 Z M 711.6875 548.960938 C 711.554688 549.625 710.777344 549.121094 709.988281 547.828125 C 709.113281 546.410156 709.214844 545.921875 710.238281 546.609375 C 711.171875 547.21875 711.835938 548.273438 711.6875 548.960938 Z M 700.347656 561.074219 C 699.34375 560.660156 698.460938 557.773438 698.34375 554.683594 C 698.230469 551.597656 698.667969 549.882812 699.296875 550.894531 C 701.445312 554.273438 702.21875 561.898438 700.347656 561.074219 Z M 680.230469 576.316406 C 677.269531 575.648438 676.765625 575.023438 676.890625 572.21875 C 677.070312 568.652344 678.167969 568.777344 682.820312 572.953125 C 686.28125 576.089844 685.242188 577.476562 680.230469 576.316406 Z M 647.65625 584.203125 C 647.703125 585.136719 647.46875 586.085938 647.175781 586.285156 C 646.878906 586.488281 646.269531 586.109375 645.820312 585.449219 C 645.375 584.789062 645.613281 583.867188 646.3125 583.390625 C 647.03125 582.902344 647.625 583.261719 647.65625 584.203125 Z M 637.976562 605.546875 C 637.066406 607.554688 635.984375 605.964844 635.964844 602.582031 C 635.929688 600.347656 636.132812 600.257812 637.324219 602.011719 C 638.089844 603.089844 638.394531 604.695312 637.976562 605.546875 Z M 626.183594 610.808594 C 624.703125 611.730469 624.242188 611.652344 624.960938 610.59375 C 625.609375 609.667969 626.699219 608.992188 627.355469 609.105469 C 628.054688 609.226562 627.5 610.003906 626.183594 610.808594 Z M 617.140625 623.910156 C 615.691406 624.8125 615.203125 624.746094 615.921875 623.691406 C 616.558594 622.75 617.65625 622.085938 618.332031 622.191406 C 619.007812 622.300781 618.476562 623.082031 617.140625 623.910156 Z M 508.03125 691.171875 C 507.351562 691.636719 506.414062 691.457031 505.941406 690.757812 C 505.464844 690.054688 505.867188 689.449219 506.820312 689.394531 C 507.78125 689.339844 508.695312 689.535156 508.890625 689.824219 C 509.085938 690.113281 508.710938 690.710938 508.03125 691.171875 Z M 480.714844 695.828125 C 480.058594 696.273438 479.105469 696.070312 478.644531 695.394531 C 478.171875 694.695312 478.578125 694.089844 479.507812 694.046875 C 480.453125 693.976562 481.398438 694.171875 481.597656 694.460938 C 481.796875 694.753906 481.398438 695.363281 480.714844 695.828125 Z M 463.550781 707.480469 C 462.878906 707.9375 461.941406 707.722656 461.480469 707.046875 C 461.007812 706.347656 461.394531 705.753906 462.34375 705.699219 C 463.289062 705.628906 464.242188 705.824219 464.4375 706.113281 C 464.636719 706.40625 464.234375 707.019531 463.550781 707.480469 Z M 459.628906 710.289062 C 458.902344 711.738281 458.832031 713.71875 459.476562 714.664062 C 460.117188 715.613281 460.105469 716.785156 459.449219 717.230469 C 457.292969 718.691406 455.792969 714.679688 457.378906 711.734375 C 459.347656 708.074219 461.371094 706.753906 459.628906 710.289062 Z M 342.058594 564.007812 C 341.753906 564.214844 340.808594 564.054688 339.945312 563.691406 C 339.082031 563.3125 338.980469 562.613281 339.675781 562.140625 C 340.402344 561.648438 341.332031 561.789062 341.777344 562.445312 C 342.21875 563.09375 342.355469 563.808594 342.058594 564.007812 Z M 405.378906 659.726562 C 404.820312 662.457031 404.503906 662.722656 403.539062 661.257812 C 401.578125 658.292969 401.972656 654.707031 404.164062 655.65625 C 405.199219 656.09375 405.734375 657.929688 405.378906 659.726562 Z M 369.234375 620.269531 C 367.941406 621.148438 367.085938 620.800781 366.722656 619.230469 C 366.445312 617.917969 365.839844 616.328125 365.402344 615.683594 C 364.96875 615.050781 365.390625 614.480469 366.347656 614.425781 C 367.304688 614.367188 368.777344 615.378906 369.628906 616.632812 C 370.539062 617.972656 370.355469 619.511719 369.234375 620.269531 Z M 377.4375 634.367188 C 375.148438 633.964844 374.730469 632.183594 376.628906 630.894531 C 377.644531 630.203125 378.808594 630.15625 379.230469 630.773438 C 380.253906 632.285156 379.058594 634.648438 377.4375 634.367188 Z M 359.777344 612.695312 C 358.867188 611.355469 358.902344 610.203125 359.855469 610.148438 C 360.8125 610.097656 362.097656 610.820312 362.734375 611.757812 C 363.378906 612.707031 363.359375 613.851562 362.683594 614.3125 C 362.007812 614.773438 360.695312 614.042969 359.777344 612.695312 Z M 338.734375 581.910156 C 338.148438 582.304688 337.371094 580.851562 337.042969 578.695312 C 336.296875 574.03125 337.1875 573.710938 338.703125 578.089844 C 339.308594 579.796875 339.308594 581.519531 338.734375 581.910156 Z M 370.96875 511.136719 C 371.253906 509.753906 371.988281 508.722656 372.617188 508.828125 C 373.242188 508.9375 373.011719 510.054688 372.09375 511.328125 C 370.796875 513.148438 370.5625 513.101562 370.96875 511.136719 Z M 371.425781 503.210938 C 371.824219 502.347656 372.726562 502.46875 373.425781 503.5 C 374.832031 505.574219 374.300781 506.378906 372.148438 505.4375 C 371.339844 505.109375 371.015625 504.113281 371.425781 503.210938 Z M 369.679688 496.554688 C 370.652344 495.894531 371.816406 495.847656 372.234375 496.464844 C 373.589844 498.460938 371.765625 500.441406 369.785156 499.085938 C 368.617188 498.304688 368.574219 497.304688 369.679688 496.554688 Z M 391.6875 486.851562 C 391.660156 485.90625 391.867188 484.976562 392.171875 484.769531 C 392.46875 484.570312 393.074219 484.945312 393.519531 485.605469 C 393.957031 486.25 393.75 487.179688 393.023438 487.671875 C 392.3125 488.152344 391.707031 487.777344 391.6875 486.851562 Z M 423.019531 466.519531 C 423.125 464.058594 423.613281 461.777344 424.125 461.402344 C 425.542969 460.320312 428.78125 465.996094 428.222656 468.644531 C 427.027344 474.398438 422.707031 472.636719 423.019531 466.519531 Z M 434.34375 462.503906 C 435.644531 462.1875 436.886719 462.601562 437.132812 463.46875 C 437.9375 466.429688 435.28125 467.96875 433.613281 465.515625 C 432.457031 463.8125 432.691406 462.890625 434.34375 462.503906 Z M 456.375 449.867188 C 455.261719 445.4375 455.386719 445.101562 457.085938 447.648438 C 459.570312 451.34375 460.835938 456.734375 459.007812 455.792969 C 458.265625 455.394531 457.078125 452.75 456.375 449.867188 Z M 452.339844 441.515625 C 453.160156 440.359375 453.804688 440.230469 453.804688 441.1875 C 453.859375 442.117188 453.359375 443.226562 452.714844 443.664062 C 450.960938 444.855469 450.761719 443.746094 452.339844 441.515625 Z M 458.511719 438.839844 C 459.46875 438.792969 460.402344 439.003906 460.585938 439.273438 C 460.785156 439.566406 460.414062 440.1875 459.738281 440.644531 C 459.058594 441.109375 458.105469 440.902344 457.632812 440.207031 C 457.171875 439.527344 457.570312 438.917969 458.511719 438.839844 Z M 510.582031 400.234375 C 510.953125 398.453125 513.664062 398.714844 514.960938 400.628906 C 515.605469 401.578125 515.636719 402.691406 515.039062 403.097656 C 513.679688 404.019531 510.261719 401.816406 510.582031 400.234375 Z M 523.359375 410.375 C 524.777344 412.46875 524.273438 413.269531 522.085938 412.3125 C 521.28125 411.984375 520.96875 410.980469 521.375 410.113281 C 521.761719 409.222656 522.664062 409.351562 523.359375 410.375 Z M 550 389.632812 C 549.25 387.398438 549.503906 386.914062 551.113281 387.570312 C 552.273438 388.0625 553.511719 388.855469 553.839844 389.339844 C 554.183594 389.820312 553.699219 390.742188 552.746094 391.390625 C 551.605469 392.164062 550.683594 391.574219 550 389.632812 Z M 555.796875 371.0625 C 556.75 371.015625 557.671875 371.203125 557.871094 371.496094 C 558.070312 371.792969 557.683594 372.390625 557.011719 372.847656 C 556.335938 373.308594 555.390625 373.125 554.917969 372.429688 C 554.445312 371.730469 554.847656 371.117188 555.796875 371.0625 Z M 583.921875 359.921875 C 584.578125 356.761719 585.066406 356.285156 586.546875 357.261719 C 587.609375 358.015625 587.621094 359.019531 586.566406 359.734375 C 585.566406 360.414062 585.140625 361.5 585.578125 362.140625 C 586.023438 362.796875 585.832031 363.722656 585.148438 364.183594 C 583.351562 365.40625 583.019531 364.261719 583.921875 359.921875 Z M 615.023438 336.9375 C 615.703125 336.476562 616.628906 336.632812 617.066406 337.277344 C 617.511719 337.933594 617.320312 338.855469 616.636719 339.316406 C 615.964844 339.773438 615.054688 339.605469 614.609375 338.945312 C 614.171875 338.300781 614.351562 337.394531 615.023438 336.9375 Z M 747.019531 249.039062 C 747.699219 248.578125 748.78125 248.976562 749.425781 249.925781 C 750.070312 250.875 750.261719 252.351562 749.84375 253.199219 C 749.441406 254.074219 748.394531 253.683594 747.472656 252.328125 C 746.554688 250.976562 746.339844 249.503906 747.019531 249.039062 Z M 759.566406 250.34375 C 760.296875 249.277344 761.28125 248.921875 761.71875 249.5625 C 762.144531 250.195312 761.664062 251.289062 760.667969 251.964844 C 759.648438 252.660156 758.664062 253.015625 758.480469 252.746094 C 758.3125 252.492188 758.792969 251.398438 759.566406 250.34375 Z M 757.796875 240 C 758.847656 239.285156 760.261719 239.511719 760.929688 240.496094 C 761.597656 241.480469 763.542969 242.890625 765.226562 243.605469 C 767.390625 244.515625 768.199219 245.582031 767.882812 247.039062 C 767.445312 249.234375 763.71875 247.828125 758.449219 243.460938 C 756.570312 241.886719 756.375 240.964844 757.796875 240 Z M 769.902344 235.253906 C 770.582031 234.792969 771.511719 234.957031 771.949219 235.601562 C 772.394531 236.253906 772.203125 237.179688 771.519531 237.640625 C 770.847656 238.097656 769.9375 237.921875 769.492188 237.269531 C 769.054688 236.625 769.226562 235.710938 769.902344 235.253906 Z M 773.148438 220.242188 C 774.0625 218.96875 774.960938 219.039062 775.800781 220.441406 C 776.503906 221.613281 777.503906 224.238281 778.027344 226.261719 L 779.011719 229.953125 L 777.207031 226.820312 C 776.203125 225.121094 774.570312 223.367188 773.585938 222.941406 C 772.59375 222.515625 772.414062 221.300781 773.148438 220.242188 Z M 813.707031 201.894531 C 814.78125 196.609375 817.125 196.722656 816.308594 201.996094 C 815.738281 205.632812 814.160156 208.066406 813.242188 206.714844 C 813.015625 206.382812 813.203125 204.222656 813.707031 201.894531 Z M 880.554688 154.1875 C 882.957031 154.113281 884.953125 154.734375 884.96875 155.582031 C 885.039062 158.007812 881.910156 159.4375 879.726562 157.953125 C 875.9375 155.375 876.175781 154.339844 880.554688 154.1875 Z M 902.777344 138.082031 C 903.453125 137.625 904.355469 137.796875 904.800781 138.457031 C 905.238281 139.101562 905.070312 140.003906 904.394531 140.464844 C 903.710938 140.925781 902.8125 140.75 902.375 140.105469 C 901.925781 139.445312 902.09375 138.546875 902.777344 138.082031 Z M 909.164062 142.226562 C 909.613281 142.890625 909.652344 144.132812 909.230469 144.980469 C 908.851562 145.835938 908.164062 146.019531 907.71875 145.363281 C 907.269531 144.703125 907.234375 143.457031 907.632812 142.625 C 908.035156 141.753906 908.71875 141.574219 909.164062 142.226562 Z M 912.679688 130.25 C 913.941406 129.925781 914.617188 129.15625 914.195312 128.539062 C 913.765625 127.902344 914.027344 126.957031 914.761719 126.457031 C 915.539062 125.929688 916.371094 126.644531 916.695312 128.058594 C 916.996094 129.445312 918.230469 130.53125 919.429688 130.449219 C 923.558594 130.222656 921.167969 132.242188 916.644531 132.796875 C 911.9375 133.382812 908.601562 131.242188 912.679688 130.25 Z M 926.171875 131.359375 C 926.832031 131.472656 927.617188 132.417969 927.90625 133.433594 C 928.300781 134.929688 928.023438 135.117188 926.410156 134.421875 C 924.316406 133.523438 924.097656 131.015625 926.171875 131.359375 Z M 936.777344 116.75 C 937.476562 116.273438 938.070312 116.632812 938.121094 117.5625 C 938.148438 118.507812 937.902344 119.4375 937.625 119.625 C 937.320312 119.832031 936.710938 119.484375 936.261719 118.824219 C 935.8125 118.164062 936.058594 117.238281 936.777344 116.75 Z M 942.003906 113.59375 C 942.980469 113.296875 945.3125 114.207031 947.148438 115.585938 C 951.371094 118.746094 951.023438 122.238281 946.699219 120.417969 C 942.746094 118.722656 939.691406 114.257812 942.003906 113.59375 Z M 948.136719 107.28125 C 948.113281 105.199219 948.460938 105.195312 949.949219 107.347656 C 950.953125 108.824219 951.230469 110.386719 950.554688 110.84375 C 949.015625 111.890625 948.160156 110.628906 948.136719 107.28125 Z M 965.246094 111.871094 C 965.910156 110.921875 966.988281 110.234375 967.652344 110.355469 C 968.332031 110.484375 967.792969 111.253906 966.472656 112.085938 C 965.015625 112.996094 964.511719 112.910156 965.246094 111.871094 Z M 970.265625 97.460938 C 972.183594 96.160156 973.152344 96.464844 974.214844 98.683594 C 976.324219 103.019531 972.449219 106.171875 969.800781 102.273438 C 968.238281 99.972656 968.355469 98.757812 970.265625 97.460938 Z M 973.445312 87.410156 C 973.058594 85.636719 975.363281 84.042969 976.320312 85.457031 C 976.464844 85.667969 975.992188 86.695312 975.265625 87.730469 C 974.375 88.984375 973.761719 88.867188 973.445312 87.410156 Z M 992.769531 91.945312 C 993.128906 90.199219 998.054688 90.875 998.105469 92.683594 C 998.144531 93.503906 997.675781 94.496094 997.113281 94.875 C 995.796875 95.773438 992.445312 93.496094 992.769531 91.945312 Z M 1056.339844 173.546875 C 1055.871094 175.820312 1054.332031 176.015625 1052.0625 174.042969 C 1050.816406 172.976562 1050.070312 171.921875 1050.390625 171.703125 C 1051.671875 170.832031 1056.582031 172.371094 1056.339844 173.546875 Z M 1014.671875 114.25 C 1014.664062 113.324219 1014.863281 112.386719 1015.164062 112.179688 C 1015.46875 111.976562 1016.078125 112.363281 1016.511719 113.003906 C 1016.960938 113.660156 1016.746094 114.59375 1016.027344 115.082031 C 1015.308594 115.570312 1014.707031 115.191406 1014.671875 114.25 Z M 1047.949219 142 C 1047.792969 141.902344 1047.625 141.800781 1047.445312 141.671875 C 1045.828125 140.582031 1045.300781 139.558594 1045.792969 138.820312 L 1039.742188 129.914062 C 1037.851562 129.988281 1035.429688 127.503906 1035.28125 124.890625 C 1035.234375 124.144531 1035.210938 123.609375 1035.230469 123.265625 L 1015.757812 94.585938 C 1005.625 79.664062 985.238281 75.765625 970.308594 85.902344 L 917.769531 121.574219 C 918.253906 121.675781 918.648438 121.863281 918.832031 122.136719 C 920.007812 123.863281 917.527344 124.816406 915.507812 123.429688 C 915.421875 123.371094 915.359375 123.316406 915.285156 123.261719 L 852.4375 165.9375 C 853.433594 166.183594 854.589844 167.386719 856.175781 169.722656 C 857.949219 172.335938 859.128906 174.671875 858.8125 174.886719 C 858.464844 175.121094 857.4375 174.1875 856.488281 172.789062 C 855.054688 170.679688 854.34375 170.761719 851.910156 173.324219 C 849.339844 176.0625 849.152344 176.046875 850.074219 173.277344 C 850.652344 171.550781 850.703125 169.558594 850.191406 168.804688 C 849.953125 168.453125 849.925781 168 850.066406 167.542969 L 788.097656 209.617188 C 788.785156 210.371094 789.640625 211.550781 790.765625 213.207031 C 793.546875 217.304688 794.019531 219.191406 792.785156 221.453125 C 791.894531 223.066406 791.703125 225.15625 792.316406 226.0625 C 792.949219 226.992188 793.136719 228.425781 792.777344 229.261719 C 791.941406 231.042969 786.683594 226.8125 786.082031 223.902344 C 785.824219 222.667969 786.238281 222.722656 787.1875 224 C 788.46875 225.707031 789.023438 225.535156 790.324219 223.125 C 792.09375 219.882812 790.347656 216.199219 786.757812 215.589844 C 785.035156 215.28125 784.617188 214.378906 785.113281 212 C 785.140625 211.855469 785.171875 211.722656 785.203125 211.585938 L 717.039062 257.867188 C 717.15625 258.4375 716.90625 259.078125 716.359375 259.453125 C 715.824219 259.8125 715.328125 259.679688 715.113281 259.175781 L 547.929688 372.6875 C 547.972656 372.742188 548.019531 372.792969 548.054688 372.847656 C 548.726562 373.832031 548.707031 375 548.023438 375.464844 C 547.34375 375.925781 546.273438 375.496094 545.605469 374.511719 C 545.566406 374.457031 545.535156 374.394531 545.5 374.335938 L 466.980469 427.652344 C 467.199219 428.152344 467.21875 428.613281 467.003906 428.757812 C 466.773438 428.914062 466.148438 428.867188 465.492188 428.660156 L 448.847656 439.960938 C 448.496094 440.835938 448.089844 441.527344 447.65625 441.832031 C 445.613281 443.28125 445.035156 446.476562 446.417969 448.816406 C 446.828125 449.496094 446.371094 450.371094 445.414062 450.765625 C 442.601562 451.941406 444.457031 455.921875 448.097656 456.5625 C 450.84375 457.035156 451.316406 457.574219 450.566406 459.265625 C 449.183594 462.328125 447.972656 462.867188 445.804688 461.398438 C 444.734375 460.675781 443.121094 460.617188 442.191406 461.25 C 441.25 461.890625 439.734375 461.328125 438.851562 460.03125 C 437.789062 458.464844 438.050781 457.097656 439.628906 456.027344 C 440.945312 455.132812 441.960938 453.316406 441.832031 451.980469 C 441.75 450.816406 442.859375 447.03125 444.257812 443.078125 L 330.992188 519.984375 C 319.613281 527.710938 314.648438 541.390625 317.414062 554.074219 C 317.957031 554.824219 318.355469 555.535156 318.511719 556.082031 C 318.691406 556.683594 318.671875 557.347656 318.519531 557.972656 C 319.433594 560.554688 320.6875 563.0625 322.292969 565.429688 L 322.835938 566.226562 C 322.898438 566.304688 322.964844 566.390625 323.027344 566.480469 C 323.058594 566.527344 323.078125 566.574219 323.105469 566.625 L 419.035156 707.910156 C 419.390625 707.703125 419.789062 707.492188 420.234375 707.269531 C 421.253906 706.757812 422.074219 705.480469 422.039062 704.433594 C 422.007812 703.097656 422.832031 702.730469 424.8125 703.285156 C 426.777344 703.816406 427.21875 704.34375 426.222656 705.019531 C 425.324219 705.625 426.253906 706.523438 428.785156 707.550781 C 430.957031 708.425781 432.757812 709.914062 432.796875 710.914062 C 432.890625 714.066406 430.972656 714.066406 427.144531 710.925781 C 425.0625 709.230469 422.304688 708.300781 421 708.875 C 420.59375 709.054688 420.277344 709.234375 420.054688 709.414062 L 424.386719 715.796875 C 424.960938 716.640625 425.574219 717.445312 426.210938 718.222656 C 426.121094 717.671875 426.367188 717.085938 426.867188 716.746094 C 427.523438 716.300781 428.4375 716.4375 428.886719 717.101562 C 429.335938 717.761719 429.140625 718.679688 428.484375 719.125 C 428.078125 719.402344 427.582031 719.453125 427.148438 719.308594 C 437.90625 731.265625 456.164062 733.761719 469.839844 724.476562 L 666.375 591.035156 C 666.183594 590.761719 666.246094 590.328125 666.542969 589.6875 C 667.011719 588.664062 667.882812 587.929688 668.480469 588.03125 C 669.074219 588.136719 669.476562 588.417969 669.714844 588.765625 L 678.226562 582.988281 C 677.273438 581.671875 676.75 580.089844 677.476562 579.601562 C 678.035156 579.222656 679.503906 579.933594 680.886719 581.179688 L 1045.363281 333.710938 C 1045.375 333.097656 1045.816406 332.652344 1046.734375 332.777344 L 1052.40625 328.925781 C 1052.789062 327.054688 1054.070312 325.617188 1055.820312 325.914062 C 1056.09375 325.964844 1056.328125 326.035156 1056.53125 326.125 L 1067.5 318.679688 C 1066.546875 316.800781 1065.964844 314.859375 1066.160156 313.574219 C 1066.910156 308.800781 1068.609375 308.03125 1069.984375 311.910156 C 1070.4375 313.175781 1070.980469 314.589844 1071.527344 315.945312 L 1109.152344 290.398438 C 1114.554688 286.730469 1118.507812 281.710938 1120.878906 276.101562 C 1120.328125 275.5625 1119.726562 274.859375 1119.15625 274.050781 C 1116.96875 270.960938 1116.96875 270.566406 1119.117188 271.929688 C 1119.996094 272.492188 1120.96875 273.238281 1121.722656 273.910156 C 1124.335938 266.242188 1124.085938 257.683594 1120.65625 249.996094 C 1119.875 249.535156 1119.589844 248.957031 1119.859375 248.339844 C 1119.265625 247.183594 1118.597656 246.054688 1117.851562 244.953125 L 1047.949219 142 " fill-opacity="1" fill-rule="nonzero"/></g></g></g></g></g><g clip-path="url(#88ab1956be)"><g clip-path="url(#6c970756f6)"><g clip-path="url(#12014d0245)"><g clip-path="url(#3702340a43)"><path fill="#d62b33" d="M 925.484375 221.023438 C 925.476562 220.976562 925.464844 220.925781 925.460938 220.882812 C 925.355469 218.824219 925.558594 218.347656 926.992188 220 L 931.886719 216.675781 C 937.835938 212.636719 943.414062 210.941406 948.621094 211.589844 C 953.039062 212.144531 956.855469 214.367188 960.089844 218.226562 C 960.671875 218.082031 961.292969 218.296875 961.632812 218.796875 C 961.949219 219.261719 961.949219 219.851562 961.6875 220.320312 C 961.710938 220.355469 961.742188 220.386719 961.765625 220.425781 L 980.972656 248.710938 C 984.53125 253.953125 985.648438 259.109375 984.332031 264.1875 C 983.015625 269.265625 979.382812 273.824219 973.433594 277.863281 L 959.355469 287.425781 L 957.683594 284.960938 C 957.292969 285.585938 956.890625 285.675781 956.53125 285.144531 C 956.140625 284.574219 956.101562 283.710938 956.28125 282.894531 L 917.808594 226.234375 Z M 974.25 286.726562 C 974.78125 288.265625 974.515625 290.027344 973.628906 290.628906 C 972.753906 291.222656 971.367188 292.617188 970.585938 293.742188 C 969.765625 294.859375 968.722656 295.207031 968.222656 294.46875 C 967.738281 293.753906 968.1875 292.570312 969.226562 291.863281 C 970.242188 291.175781 970.878906 289.578125 970.589844 288.335938 C 969.800781 284.851562 973.101562 283.40625 974.25 286.726562 Z M 932.917969 267.34375 C 932.578125 265.847656 932.8125 264.726562 933.441406 264.84375 C 934.074219 264.949219 934.34375 266.175781 934.046875 267.542969 C 933.621094 269.527344 933.386719 269.484375 932.917969 267.34375 Z M 939.65625 280.644531 C 940.808594 283.941406 940.207031 284.859375 938.535156 282.398438 C 937.894531 281.453125 937.675781 280.042969 938.039062 279.253906 C 938.410156 278.472656 939.128906 279.09375 939.65625 280.644531 Z M 927.578125 268.824219 C 927.207031 272.105469 926.648438 272.789062 925.609375 271.257812 C 925.214844 270.679688 925.558594 269.257812 926.394531 268.074219 C 927.648438 266.308594 927.847656 266.429688 927.578125 268.824219 Z M 938.953125 289.703125 C 938.035156 289.300781 937.382812 288.554688 937.492188 288.03125 C 937.585938 287.488281 938.585938 287.65625 939.671875 288.398438 C 941.90625 289.925781 941.460938 290.773438 938.953125 289.703125 Z M 960.507812 201.335938 C 960.914062 200.4375 961.460938 200.777344 961.75 202.105469 C 962.34375 204.730469 961.710938 205.699219 960.550781 203.992188 C 960.132812 203.375 960.105469 202.167969 960.507812 201.335938 Z M 967.898438 206.898438 C 968.554688 207.863281 965.855469 208.914062 964.367188 208.277344 C 963.472656 207.898438 963.835938 207.363281 965.210938 207.027344 C 966.515625 206.707031 967.726562 206.648438 967.898438 206.898438 Z M 978.324219 217.238281 C 978.5 215.652344 977.554688 213.527344 976.191406 212.464844 C 973.324219 210.253906 974.109375 209.304688 978.226562 210.039062 C 980.261719 210.390625 980.90625 211.082031 980.355469 212.277344 C 979.921875 213.222656 980.664062 215.089844 982.027344 216.460938 C 984.703125 219.113281 984.402344 219.824219 980.503906 220.007812 C 978.460938 220.09375 978.054688 219.582031 978.324219 217.238281 Z M 887.847656 221.089844 L 953.082031 317.167969 L 965.914062 308.453125 C 965.90625 308.203125 966.050781 307.941406 966.375 307.71875 C 966.703125 307.5 967.070312 307.410156 967.417969 307.433594 L 976.613281 301.191406 C 976.277344 300.246094 976.414062 299.605469 977.082031 299.570312 C 977.46875 299.546875 977.933594 299.703125 978.410156 299.96875 L 984.8125 295.621094 C 993.054688 290.027344 999.046875 283.867188 1002.785156 277.144531 C 1006.527344 270.421875 1008.070312 263.515625 1007.414062 256.433594 C 1006.757812 249.347656 1004.078125 242.347656 999.382812 235.433594 L 980.898438 208.210938 C 975.964844 200.941406 970.269531 195.730469 963.820312 192.582031 C 957.367188 189.433594 950.398438 188.4375 942.910156 189.59375 C 935.421875 190.753906 927.667969 194.054688 919.644531 199.5 L 887.847656 221.089844 " fill-opacity="1" fill-rule="nonzero"/></g></g></g></g><g clip-path="url(#632630df07)"><g clip-path="url(#cb35d3d07d)"><g clip-path="url(#03da7110ac)"><g clip-path="url(#82cacd1083)"><path fill="#d62b33" d="M 467.300781 525.996094 C 468.449219 526.800781 469.332031 527.757812 469.261719 528.117188 C 469.066406 529.074219 464.445312 528.160156 463.671875 527.023438 C 462.484375 525.273438 465.144531 524.546875 467.300781 525.996094 Z M 467.109375 519.570312 C 466.347656 517.394531 466.617188 516.933594 468.238281 517.585938 C 469.382812 518.078125 470.808594 519.148438 471.386719 519.941406 C 472.441406 521.453125 471.222656 522.96875 469.230469 522.625 C 468.601562 522.515625 467.632812 521.128906 467.109375 519.570312 Z M 454.050781 533.019531 C 454.339844 534.261719 454.0625 535.617188 453.460938 536.023438 C 452.863281 536.429688 451.824219 535.972656 451.15625 534.988281 C 450.480469 533.992188 450.761719 532.640625 451.738281 531.976562 C 452.835938 531.230469 453.742188 531.636719 454.050781 533.019531 Z M 447.167969 533.359375 C 445.886719 534.226562 445 533.867188 444.660156 532.289062 C 444.363281 530.992188 443.976562 529.695312 443.78125 529.40625 C 443.59375 529.132812 444.003906 528.542969 444.6875 528.078125 C 445.34375 527.632812 446.632812 528.324219 447.519531 529.632812 C 448.472656 531.03125 448.320312 532.574219 447.167969 533.359375 Z M 462.886719 597.828125 L 457.464844 596.761719 L 459.574219 593.28125 C 461.484375 590.125 461.730469 590.066406 462.492188 592.699219 C 462.945312 594.257812 464.539062 595.890625 466.019531 596.296875 C 470.992188 597.644531 468.390625 598.933594 462.886719 597.828125 Z M 481.179688 564.132812 C 480.660156 562.589844 480.421875 561.171875 480.679688 560.996094 C 480.9375 560.820312 481.875 561.765625 482.753906 563.0625 C 483.648438 564.378906 483.878906 565.785156 483.273438 566.195312 C 482.65625 566.617188 481.710938 565.691406 481.179688 564.132812 Z M 500.097656 558.25 C 500.074219 557.308594 500.578125 556.164062 501.257812 555.699219 C 501.933594 555.242188 502.527344 555.644531 502.550781 556.585938 C 502.578125 557.523438 502.039062 558.65625 501.359375 559.121094 C 500.683594 559.578125 500.125 559.1875 500.097656 558.25 Z M 508.070312 560.757812 C 508.269531 561.050781 507.570312 561.863281 506.511719 562.582031 C 505.457031 563.296875 504.582031 563.097656 504.558594 562.148438 C 504.503906 560.578125 507.214844 559.496094 508.070312 560.757812 Z M 450.738281 518.742188 C 450.457031 518.929688 450.222656 518.761719 450.046875 518.347656 L 417.390625 540.523438 L 420.554688 545.183594 C 420.769531 544.601562 421.125 544.078125 421.535156 543.800781 C 422.195312 543.347656 422.773438 543.726562 422.796875 544.667969 C 422.828125 545.519531 422.390625 546.535156 421.824219 547.050781 L 432.21875 562.363281 C 432.480469 562.476562 432.757812 562.628906 433.054688 562.832031 C 434.824219 564.023438 434.925781 564.800781 433.726562 564.585938 L 435.875 567.746094 C 435.988281 567.488281 436.785156 567.121094 437.855469 566.847656 C 439.511719 566.445312 439.605469 565.480469 438.277344 563.464844 C 436.863281 561.339844 436.960938 560.886719 438.632812 561.589844 C 439.851562 562.09375 441.015625 563.253906 441.21875 564.160156 C 441.40625 565.078125 440.582031 567.429688 439.398438 569.382812 C 438.914062 570.179688 438.527344 570.777344 438.214844 571.195312 L 482.621094 636.597656 L 517.476562 612.933594 C 517.625 612.566406 518.308594 611.976562 519.5625 611.121094 C 520.238281 610.652344 521.054688 610.246094 521.902344 609.929688 L 547.007812 592.882812 L 535.164062 575.4375 L 488.890625 606.855469 L 474.265625 585.316406 L 497.6875 569.414062 C 496.324219 568.707031 495.917969 568.042969 496.609375 567.574219 C 497.285156 567.113281 498.707031 567.289062 499.789062 567.984375 L 513.269531 558.832031 L 501.421875 541.386719 L 462.421875 567.871094 L 448.117188 546.804688 C 448.402344 548.441406 448.050781 548.351562 446.300781 547.160156 C 444.996094 546.269531 444.320312 544.375 444.6875 542.597656 C 445.160156 540.289062 445.542969 539.949219 446.300781 541.1875 C 446.789062 542.03125 447.433594 543.824219 447.808594 545.351562 L 458.308594 538.222656 C 458.222656 538.15625 458.132812 538.09375 458.050781 538.019531 C 456.140625 536.375 456.210938 536.078125 458.417969 536.242188 C 459.160156 536.300781 459.917969 536.480469 460.535156 536.710938 L 493.617188 514.25 L 481.773438 496.804688 L 451.457031 517.390625 C 451.285156 518.039062 451.039062 518.539062 450.738281 518.742188 " fill-opacity="1" fill-rule="nonzero"/></g></g></g></g><g clip-path="url(#1169be96d0)"><g clip-path="url(#64d94927d1)"><g clip-path="url(#a58fa294f7)"><g clip-path="url(#1e60051bbd)"><path fill="#d62b33" d="M 854.71875 262.949219 C 855.871094 263.753906 856.75 264.710938 856.683594 265.070312 C 856.484375 266.027344 851.867188 265.113281 851.09375 263.972656 C 849.90625 262.226562 852.5625 261.5 854.71875 262.949219 Z M 854.527344 256.519531 C 853.765625 254.34375 854.035156 253.886719 855.65625 254.535156 C 856.800781 255.03125 858.226562 256.097656 858.804688 256.894531 C 859.859375 258.40625 858.640625 259.921875 856.644531 259.578125 C 856.019531 259.464844 855.050781 258.078125 854.527344 256.519531 Z M 841.46875 269.972656 C 841.757812 271.21875 841.476562 272.570312 840.878906 272.976562 C 840.28125 273.382812 839.242188 272.925781 838.574219 271.941406 C 837.898438 270.945312 838.179688 269.59375 839.15625 268.929688 C 840.253906 268.1875 841.164062 268.589844 841.46875 269.972656 Z M 834.582031 270.3125 C 833.304688 271.179688 832.414062 270.820312 832.082031 269.242188 C 831.777344 267.945312 831.398438 266.648438 831.203125 266.359375 C 831.015625 266.085938 831.425781 265.492188 832.105469 265.03125 C 832.761719 264.585938 834.046875 265.277344 834.9375 266.585938 C 835.886719 267.984375 835.738281 269.527344 834.582031 270.3125 Z M 850.304688 334.78125 L 844.882812 333.714844 L 846.988281 330.238281 C 848.898438 327.078125 849.144531 327.019531 849.910156 329.652344 C 850.359375 331.210938 851.957031 332.84375 853.441406 333.246094 C 858.410156 334.597656 855.8125 335.886719 850.304688 334.78125 Z M 868.597656 301.085938 C 868.074219 299.542969 867.839844 298.125 868.097656 297.949219 C 868.355469 297.773438 869.292969 298.714844 870.175781 300.011719 C 871.066406 301.328125 871.296875 302.738281 870.6875 303.148438 C 870.070312 303.570312 869.132812 302.644531 868.597656 301.085938 Z M 887.515625 295.203125 C 887.492188 294.261719 887.992188 293.117188 888.675781 292.652344 C 889.351562 292.195312 889.945312 292.59375 889.96875 293.539062 C 889.996094 294.476562 889.457031 295.609375 888.777344 296.074219 C 888.101562 296.53125 887.542969 296.140625 887.515625 295.203125 Z M 895.488281 297.707031 C 895.6875 298 894.988281 298.816406 893.929688 299.535156 C 892.875 300.25 892.003906 300.046875 891.976562 299.101562 C 891.921875 297.527344 894.632812 296.449219 895.488281 297.707031 Z M 838.15625 255.695312 C 837.878906 255.882812 837.640625 255.714844 837.464844 255.300781 L 804.804688 277.476562 L 807.972656 282.136719 C 808.1875 281.558594 808.542969 281.03125 808.953125 280.753906 C 809.613281 280.304688 810.191406 280.679688 810.214844 281.617188 C 810.242188 282.472656 809.808594 283.484375 809.238281 284.003906 L 819.636719 299.316406 C 819.894531 299.429688 820.179688 299.582031 820.476562 299.78125 C 822.242188 300.976562 822.34375 301.753906 821.144531 301.539062 L 823.289062 304.699219 C 823.402344 304.441406 824.199219 304.074219 825.273438 303.796875 C 826.925781 303.402344 827.027344 302.433594 825.695312 300.417969 C 824.28125 298.292969 824.375 297.839844 826.050781 298.542969 C 827.269531 299.046875 828.433594 300.207031 828.636719 301.113281 C 828.824219 302.03125 828 304.382812 826.820312 306.332031 C 826.332031 307.132812 825.945312 307.730469 825.632812 308.148438 L 870.039062 373.550781 L 904.894531 349.886719 C 905.039062 349.519531 905.726562 348.925781 906.980469 348.074219 C 907.65625 347.605469 908.472656 347.199219 909.316406 346.882812 L 934.425781 329.832031 L 922.582031 312.390625 L 876.308594 343.808594 L 861.683594 322.269531 L 885.105469 306.363281 C 883.738281 305.660156 883.332031 305 884.023438 304.527344 C 884.703125 304.066406 886.125 304.242188 887.207031 304.9375 L 900.6875 295.785156 L 888.839844 278.339844 L 849.835938 304.824219 L 835.535156 283.757812 C 835.816406 285.394531 835.464844 285.304688 833.71875 284.113281 C 832.414062 283.21875 831.738281 281.328125 832.105469 279.550781 C 832.574219 277.246094 832.960938 276.902344 833.71875 278.140625 C 834.207031 278.984375 834.851562 280.777344 835.230469 282.304688 L 845.726562 275.175781 C 845.640625 275.109375 845.554688 275.042969 845.46875 274.972656 C 843.5625 273.328125 843.625 273.03125 845.835938 273.191406 C 846.578125 273.253906 847.335938 273.433594 847.953125 273.664062 L 881.039062 251.199219 L 869.195312 233.757812 L 838.875 254.34375 C 838.703125 254.988281 838.457031 255.488281 838.15625 255.695312 " fill-opacity="1" fill-rule="nonzero"/></g></g></g></g><g clip-path="url(#53973397c1)"><g clip-path="url(#ec6f4c51dd)"><g clip-path="url(#3721928f82)"><g clip-path="url(#10e03c0748)"><path fill="#d62b33" d="M 670.015625 420.046875 C 668.765625 420.363281 668.113281 421.191406 668.613281 421.933594 C 669.625 423.417969 667.808594 425.082031 666.015625 424.289062 C 664.832031 423.792969 665.589844 413.742188 666.871094 412.875 C 667.222656 412.636719 668.625 414.007812 669.9375 415.941406 C 671.738281 418.59375 671.765625 419.625 670.015625 420.046875 Z M 668.363281 408.382812 C 669.691406 408.917969 671.054688 409.757812 671.398438 410.222656 C 671.742188 410.730469 671.460938 411.480469 670.78125 411.945312 C 670.121094 412.390625 668.75 411.574219 667.773438 410.082031 C 666.320312 407.902344 666.414062 407.578125 668.363281 408.382812 Z M 676.71875 444.4375 C 676.058594 444.886719 674.980469 444.492188 674.332031 443.535156 C 673.6875 442.589844 673.492188 441.113281 673.878906 440.25 C 674.296875 439.40625 675.363281 439.78125 676.285156 441.140625 C 677.207031 442.496094 677.402344 443.976562 676.71875 444.4375 Z M 651.496094 415.105469 C 651.28125 415.351562 651.109375 415.582031 650.960938 415.808594 C 653.089844 417.027344 654.960938 418.816406 656.566406 421.179688 C 658.152344 423.515625 659.097656 425.902344 659.394531 428.335938 C 659.699219 430.769531 659.359375 433.042969 658.378906 435.15625 C 657.398438 437.269531 655.832031 439.0625 653.671875 440.527344 L 632.78125 454.710938 L 616.539062 430.789062 L 637.429688 416.605469 C 639.628906 415.109375 641.898438 414.296875 644.222656 414.164062 C 645.878906 414.074219 647.492188 414.328125 649.058594 414.917969 C 648.984375 414.71875 648.863281 414.523438 648.6875 414.359375 C 647.046875 412.753906 650.328125 410.324219 652.210938 411.734375 C 652.972656 412.296875 652.644531 413.824219 651.496094 415.105469 Z M 669.6875 452.664062 C 668.96875 453.152344 668.375 452.796875 668.339844 451.851562 C 668.308594 450.90625 668.542969 449.992188 668.839844 449.789062 C 669.132812 449.585938 669.734375 449.941406 670.179688 450.601562 C 670.632812 451.261719 670.40625 452.175781 669.6875 452.664062 Z M 618.726562 409.601562 C 619.363281 408.65625 620.46875 408 621.125 408.117188 C 621.808594 408.214844 621.261719 409.011719 619.949219 409.816406 C 618.472656 410.738281 618.015625 410.65625 618.726562 409.601562 Z M 682.050781 426.421875 C 681.554688 420.289062 679.320312 414.292969 675.339844 408.433594 C 671.363281 402.578125 666.609375 398.273438 661.074219 395.53125 C 658.234375 394.121094 655.296875 393.164062 652.269531 392.652344 C 652.375 392.765625 652.476562 392.882812 652.570312 393.019531 C 653.015625 393.675781 652.804688 394.613281 652.09375 395.097656 C 651.367188 395.59375 650.757812 395.210938 650.734375 394.265625 C 650.71875 393.570312 650.835938 392.867188 651.019531 392.476562 C 648.554688 392.164062 646.027344 392.121094 643.445312 392.394531 C 637.222656 393.046875 631.113281 395.40625 625.121094 399.476562 L 586.582031 425.644531 L 651.816406 521.71875 L 669.929688 509.421875 L 644.625 472.152344 L 665.050781 458.285156 C 671.042969 454.214844 675.5 449.421875 678.417969 443.898438 C 681.332031 438.382812 682.542969 432.554688 682.050781 426.421875 " fill-opacity="1" fill-rule="nonzero"/></g></g></g></g><g clip-path="url(#16a9cb5b22)"><g clip-path="url(#1d31d46a53)"><g clip-path="url(#ba4996ac2e)"><g clip-path="url(#b6801125e0)"><path fill="#d62b33" d="M 795.21875 422.417969 C 796.730469 423.445312 797.332031 423.328125 797.921875 421.703125 L 794.382812 416.484375 C 793.832031 419.714844 794.105469 421.675781 795.21875 422.417969 " fill-opacity="1" fill-rule="nonzero"/></g></g></g></g><g clip-path="url(#c3ab7f86e3)"><g clip-path="url(#4cbb34f292)"><g clip-path="url(#0aa1ca9639)"><g clip-path="url(#176d71ebac)"><path fill="#d62b33" d="M 829.921875 381.300781 C 830.195312 382.554688 830.226562 383.71875 829.945312 383.910156 C 829.6875 384.085938 828.914062 383.425781 828.246094 382.4375 C 827.582031 381.464844 827.570312 380.28125 828.234375 379.832031 C 828.871094 379.398438 829.644531 380.066406 829.921875 381.300781 Z M 774.058594 376.496094 C 774.546875 377.214844 774.386719 378.171875 773.707031 378.632812 C 773.042969 379.082031 771.933594 378.644531 771.265625 377.660156 C 770.605469 376.6875 771.132812 375.140625 772.429688 374.261719 C 773.75 373.363281 774.808594 371.886719 774.765625 370.960938 C 774.671875 367.902344 778.21875 366.773438 779.941406 369.3125 C 781.382812 371.433594 781.027344 372.019531 777.394531 373.5 C 774.753906 374.585938 773.507812 375.683594 774.058594 376.496094 Z M 744.890625 343.59375 L 767.429688 328.289062 C 769.324219 327.003906 771.292969 326.34375 773.332031 326.3125 C 775.367188 326.277344 777.355469 326.859375 779.292969 328.054688 C 781.234375 329.25 782.964844 330.96875 784.492188 333.214844 C 785.96875 335.492188 786.90625 337.753906 787.304688 339.992188 C 787.699219 342.234375 787.503906 344.296875 786.722656 346.175781 C 785.941406 348.0625 784.625 349.632812 782.773438 350.886719 L 760.234375 366.191406 Z M 776.128906 392.71875 C 776.550781 393.335938 776.371094 394.191406 775.730469 394.625 C 774.28125 395.609375 771.167969 394.339844 771.46875 392.890625 C 771.761719 391.441406 775.183594 391.324219 776.128906 392.71875 Z M 745.289062 365.757812 C 746.21875 365.722656 747.164062 365.902344 747.359375 366.191406 C 747.558594 366.484375 747.15625 367.101562 746.5 367.542969 C 745.820312 368.007812 744.875 367.824219 744.402344 367.128906 C 743.929688 366.429688 744.332031 365.816406 745.289062 365.757812 Z M 739.574219 360.953125 C 739.304688 359.726562 739.773438 358.667969 740.644531 358.621094 C 741.511719 358.570312 742.222656 359.238281 742.269531 360.121094 C 742.328125 362.707031 740.132812 363.402344 739.574219 360.953125 Z M 739.789062 366.890625 C 739.816406 367.835938 739.570312 368.761719 739.269531 368.96875 C 738.992188 369.15625 738.378906 368.8125 737.929688 368.152344 C 737.480469 367.492188 737.714844 366.546875 738.40625 366.074219 C 739.132812 365.582031 739.738281 365.957031 739.789062 366.890625 Z M 746.414062 380.644531 C 746.03125 381.496094 745.128906 381.375 744.429688 380.347656 C 743.734375 379.320312 743.726562 378.105469 744.386719 377.660156 C 745.0625 377.199219 745.972656 377.324219 746.390625 377.941406 C 746.816406 378.566406 746.816406 379.785156 746.414062 380.644531 Z M 729.539062 342.5625 C 730.191406 342.117188 731.097656 342.238281 731.515625 342.855469 C 731.921875 343.453125 731.941406 344.695312 731.546875 345.523438 C 731.144531 346.390625 730.242188 346.269531 729.558594 345.265625 C 728.863281 344.238281 728.855469 343.023438 729.539062 342.5625 Z M 747.003906 352.144531 C 746.878906 353.449219 747.867188 355.46875 749.226562 356.664062 C 750.625 357.867188 751.140625 359.183594 750.425781 359.667969 C 748.113281 361.238281 746.585938 359.558594 745.085938 353.816406 C 744.207031 350.425781 744.34375 348.523438 745.449219 348.996094 C 746.449219 349.441406 747.152344 350.855469 747.003906 352.144531 Z M 753.800781 364.054688 C 754.550781 364.367188 755.09375 365.980469 754.980469 367.632812 C 754.871094 370.289062 754.609375 370.289062 752.644531 367.753906 C 750.476562 364.949219 751.128906 362.898438 753.800781 364.054688 Z M 740.308594 356.460938 C 738.109375 357.390625 737.949219 357.1875 738.515625 354.375 C 738.890625 352.644531 739.65625 351.335938 740.273438 351.425781 C 742.609375 351.851562 742.613281 355.46875 740.308594 356.460938 Z M 741.308594 323.820312 C 742.238281 324.429688 742.898438 325.484375 742.734375 326.15625 C 742.613281 326.828125 741.867188 326.324219 741.046875 325.039062 C 740.167969 323.609375 740.285156 323.128906 741.308594 323.820312 Z M 751.730469 317.054688 C 752.441406 316.570312 753.050781 316.953125 753.085938 317.898438 C 753.089844 318.816406 752.882812 319.75 752.582031 319.953125 C 752.285156 320.15625 751.679688 319.773438 751.25 319.140625 C 750.800781 318.480469 751.003906 317.546875 751.730469 317.054688 Z M 804.355469 358.5 C 805.019531 358.625 804.496094 359.398438 803.160156 360.226562 C 801.707031 361.121094 801.214844 361.054688 801.941406 360 C 802.578125 359.058594 803.664062 358.382812 804.355469 358.5 Z M 799.96875 340.796875 C 800.378906 339.929688 801.246094 340.019531 801.917969 341.003906 C 802.589844 341.992188 802.796875 343.492188 802.390625 344.363281 C 801.984375 345.226562 801.132812 345.125 800.464844 344.140625 C 799.796875 343.15625 799.566406 341.667969 799.96875 340.796875 Z M 788.652344 358.042969 C 789.40625 357.53125 790.269531 355.367188 790.554688 353.25 C 791.054688 349.429688 791.089844 349.433594 793.222656 353.191406 C 794.417969 355.289062 795.261719 357.605469 795.109375 358.328125 C 794.984375 359.039062 795.699219 360.867188 796.742188 362.402344 C 799.4375 366.371094 797.09375 367.167969 792.519531 363.859375 C 787.609375 360.28125 786.914062 359.226562 788.652344 358.042969 Z M 781.308594 356.550781 C 781.976562 356.667969 782.753906 357.605469 783.03125 358.609375 C 783.441406 360.109375 783.15625 360.300781 781.554688 359.609375 C 779.445312 358.703125 779.226562 356.1875 781.308594 356.550781 Z M 785.542969 372.324219 C 785.988281 372.984375 786.109375 373.664062 785.808594 373.867188 C 785.507812 374.070312 784.578125 373.941406 783.707031 373.570312 C 782.84375 373.1875 782.746094 372.496094 783.445312 372.019531 C 784.160156 371.535156 785.09375 371.664062 785.542969 372.324219 Z M 836.175781 377.15625 C 836.152344 377.441406 836.121094 377.730469 836.078125 378.046875 L 835.449219 382.773438 L 834.265625 379.226562 C 833.71875 377.59375 833.378906 376.511719 833.285156 375.765625 L 803.050781 361.210938 C 804.886719 359.097656 806.394531 356.808594 807.566406 354.328125 C 809.980469 349.214844 810.820312 343.738281 810.078125 337.902344 C 809.335938 332.066406 807.019531 326.285156 803.132812 320.558594 C 799.246094 314.832031 794.722656 310.546875 789.574219 307.703125 C 784.976562 305.167969 780.191406 303.90625 775.214844 303.910156 C 776.359375 304.457031 777.648438 304.863281 778.539062 304.929688 C 780.425781 305.042969 780.757812 305.578125 780.257812 307.5 C 779.730469 309.386719 778.644531 309.25 775.257812 306.84375 C 773.945312 305.90625 772.792969 304.90625 772.050781 304.089844 C 766.90625 304.648438 761.902344 306.558594 757.039062 309.859375 L 727.195312 330.125 C 727.242188 331.160156 726.988281 332.128906 726.511719 332.453125 C 725.960938 332.828125 725.117188 332.613281 724.277344 332.105469 L 714.929688 338.449219 L 749.546875 389.433594 C 750.832031 387.609375 751.339844 387.855469 752.722656 389.859375 C 754.382812 392.203125 754.554688 392.175781 754.410156 389.554688 C 754.195312 385.964844 757.359375 383.539062 759.015625 385.976562 C 759.683594 386.964844 759.378906 388.359375 758.359375 389.054688 C 757.324219 389.757812 756.875 392.011719 757.347656 394.078125 C 758.191406 397.824219 758.484375 398.363281 755.074219 397.570312 L 775.207031 427.226562 C 775.410156 427.363281 775.503906 427.507812 775.492188 427.648438 L 780.210938 434.59375 L 782.972656 432.71875 C 782.960938 430.289062 783.910156 427.324219 785.300781 426.496094 C 786.375 425.882812 786.484375 426.09375 785.691406 427.25 C 785.128906 428.0625 785.234375 429.542969 785.867188 430.75 L 794.949219 424.585938 C 794.59375 424.242188 793.867188 424.058594 792.71875 424.03125 C 788.441406 423.945312 787.710938 419.515625 791.539062 416.917969 C 792.277344 416.414062 792.898438 415.742188 793.371094 414.996094 L 775.535156 388.730469 C 774.765625 388.808594 773.78125 388.796875 772.515625 388.722656 C 768.847656 388.496094 768.863281 388.457031 772.328125 387.121094 C 772.890625 386.914062 773.457031 386.6875 774 386.464844 L 772.078125 383.636719 L 783.066406 376.179688 L 805.429688 387.355469 C 805.535156 387.160156 805.65625 386.96875 805.804688 386.777344 C 806.425781 385.988281 807.496094 386.191406 808.195312 387.21875 C 808.542969 387.734375 808.648438 388.339844 808.539062 388.90625 L 830.980469 400.121094 L 831.632812 399.679688 C 830.402344 397.878906 829.085938 394.539062 829.382812 393.117188 C 829.753906 391.308594 831.308594 392.746094 832.808594 396.28125 C 833.121094 397.027344 833.339844 397.769531 833.460938 398.4375 L 852.925781 385.21875 L 836.175781 377.15625 " fill-opacity="1" fill-rule="nonzero"/></g></g></g></g><g clip-path="url(#4470e629d7)"><g clip-path="url(#63bb2df423)"><g clip-path="url(#f117fc04a8)"><g clip-path="url(#46e7a9eb19)"><path fill="#d62b33" d="M 718.757812 434.554688 C 719.578125 433.398438 720.222656 433.273438 720.226562 434.226562 C 720.277344 435.15625 719.777344 436.265625 719.132812 436.703125 C 717.378906 437.890625 717.179688 436.785156 718.757812 434.554688 Z M 732.140625 455.679688 C 731.464844 456.136719 730.339844 455.6875 729.640625 454.660156 C 728.957031 453.652344 729.175781 452.765625 730.128906 452.71875 C 731.050781 452.65625 732.183594 453.128906 732.59375 453.734375 C 733.011719 454.351562 732.800781 455.230469 732.140625 455.679688 Z M 725.425781 448.832031 C 724.683594 448.433594 723.496094 445.789062 722.792969 442.90625 C 721.683594 438.476562 721.804688 438.140625 723.503906 440.6875 C 725.988281 444.382812 727.25 449.773438 725.425781 448.832031 Z M 724.929688 431.878906 C 725.886719 431.832031 726.824219 432.046875 727.003906 432.3125 C 727.203125 432.605469 726.832031 433.226562 726.15625 433.683594 C 725.476562 434.148438 724.527344 433.941406 724.054688 433.242188 C 723.59375 432.566406 723.988281 431.957031 724.929688 431.878906 Z M 686.800781 362.542969 C 688.398438 361.964844 689.824219 361.703125 690 361.960938 C 690.167969 362.214844 689.203125 363.152344 687.84375 364.078125 C 686.492188 364.996094 685.058594 365.253906 684.664062 364.671875 C 684.257812 364.070312 685.21875 363.113281 686.800781 362.542969 Z M 753.917969 452.394531 L 750.570312 447.46875 C 750.199219 447.585938 749.863281 447.519531 749.65625 447.210938 C 749.449219 446.902344 749.460938 446.496094 749.632812 446.085938 L 733.191406 421.871094 C 732.769531 421.9375 731.996094 421.789062 731.308594 421.472656 C 730.457031 421.117188 730.328125 420.410156 731.039062 419.925781 C 731.242188 419.789062 731.46875 419.707031 731.699219 419.671875 L 724.234375 408.679688 C 723.246094 409.980469 722.652344 409.210938 722.714844 406.441406 L 720.109375 402.601562 C 720.007812 402.929688 719.730469 403.277344 719.261719 403.59375 C 718.199219 404.316406 716.976562 404.355469 716.53125 403.699219 C 716.097656 403.058594 716.242188 402.15625 716.878906 401.726562 C 717.464844 401.328125 718.554688 401.273438 719.390625 401.542969 L 705.257812 380.730469 C 703.925781 383.328125 702.492188 383.785156 702.703125 381.367188 C 702.808594 380.109375 702.375 378.253906 701.71875 377.257812 C 701.117188 376.371094 700.425781 374.601562 700.070312 373.085938 L 698.507812 370.785156 C 698.175781 371.007812 697.765625 371.414062 697.230469 372.015625 C 695.34375 374.136719 695.074219 374.042969 695.015625 371.234375 C 694.964844 369.351562 695.3125 367.90625 695.871094 366.902344 L 688.683594 356.320312 L 669.910156 369.066406 L 712.375 431.605469 C 713.683594 428.332031 714.953125 425.652344 715.558594 425.238281 C 717.421875 423.976562 716.214844 432.472656 714.390625 434.574219 L 735.144531 465.140625 L 753.917969 452.394531 " fill-opacity="1" fill-rule="nonzero"/></g></g></g></g><g clip-path="url(#7b85c6cbc4)"><g clip-path="url(#2970b4a329)"><g clip-path="url(#3e0576582a)"><g clip-path="url(#3e69284b7e)"><path fill="#d62b33" d="M 610.800781 520.417969 C 611.039062 521.578125 609.972656 523.832031 608.363281 525.402344 L 605.480469 528.273438 L 607.128906 523.160156 C 608.902344 517.742188 609.996094 516.910156 610.800781 520.417969 Z M 616.679688 537.128906 C 615.558594 536.226562 613.496094 534.515625 612.058594 533.339844 C 610 531.652344 609.96875 531.074219 611.902344 530.609375 C 613.414062 530.234375 614.640625 530.992188 615.105469 532.628906 C 615.515625 534.046875 616.667969 535.1875 617.648438 535.136719 C 618.636719 535.074219 619.78125 535.527344 620.203125 536.148438 C 621.53125 538.105469 618.769531 538.878906 616.679688 537.128906 Z M 570.429688 530.816406 C 570.632812 533.511719 570.421875 533.601562 567.972656 531.699219 C 564.777344 529.226562 564.773438 528.15625 567.898438 527.984375 C 569.558594 527.902344 570.273438 528.683594 570.429688 530.816406 Z M 538.421875 486.210938 C 538.53125 485.679688 539.523438 485.855469 540.609375 486.59375 C 542.847656 488.132812 542.402344 488.96875 539.890625 487.898438 C 538.972656 487.496094 538.324219 486.75 538.421875 486.210938 Z M 551.5625 495.730469 C 552.242188 495.265625 553.152344 495.445312 553.59375 496.101562 C 554.042969 496.761719 553.859375 497.648438 553.179688 498.109375 C 552.503906 498.570312 551.609375 498.417969 551.160156 497.753906 C 550.714844 497.101562 550.886719 496.1875 551.5625 495.730469 Z M 558.410156 491.902344 C 555.769531 491.828125 555.792969 491.5625 558.601562 489.65625 C 561.542969 487.660156 561.871094 487.800781 562.394531 491.199219 C 562.714844 493.253906 562.421875 495.320312 561.722656 495.796875 C 560.929688 496.335938 560.632812 495.761719 560.921875 494.300781 C 561.308594 492.507812 560.703125 491.929688 558.410156 491.902344 Z M 567.792969 495.890625 C 568.488281 496.914062 568.195312 498.363281 567.132812 499.085938 C 566.054688 499.816406 564.964844 499.617188 564.710938 498.652344 C 563.972656 495.929688 566.359375 493.773438 567.792969 495.890625 Z M 561.925781 481.363281 C 561.628906 480.1875 562.683594 480.117188 564.839844 481.226562 C 566.738281 482.179688 568.183594 483.371094 568.070312 483.84375 C 567.753906 485.441406 562.476562 483.28125 561.925781 481.363281 Z M 569.898438 552.230469 C 567.789062 552.132812 566.808594 551.332031 566.765625 549.636719 C 566.738281 547.929688 567.023438 547.617188 567.742188 548.632812 C 568.3125 549.433594 569.613281 549.542969 570.617188 548.863281 C 571.628906 548.175781 573.015625 548.410156 573.671875 549.378906 C 575.148438 551.550781 574.027344 552.394531 569.898438 552.230469 Z M 532.046875 490.253906 C 531.71875 491.886719 530.699219 491.875 528.308594 490.246094 C 526.515625 489.027344 524.214844 488.042969 523.183594 488.128906 C 522.171875 488.164062 521.304688 487.5 521.261719 486.625 C 521.261719 485.753906 523.769531 485.710938 526.863281 486.53125 C 530.980469 487.609375 532.382812 488.644531 532.046875 490.253906 Z M 516.152344 483.167969 C 515.691406 482.488281 516.082031 481.855469 517.035156 481.808594 C 517.992188 481.746094 518.929688 481.960938 519.113281 482.230469 C 519.308594 482.519531 518.9375 483.144531 518.257812 483.605469 C 517.582031 484.066406 516.625 483.863281 516.152344 483.167969 Z M 565.628906 475.988281 C 566.257812 473.953125 566.851562 473.664062 568.335938 474.695312 C 570.664062 476.28125 569.9375 478.300781 566.988281 478.460938 C 565.308594 478.566406 565.019531 478.019531 565.628906 475.988281 Z M 564.648438 463.386719 C 562.710938 458.117188 562.820312 457.46875 565.566406 457.957031 C 567.199219 458.242188 567.59375 459.609375 567.007812 462.949219 L 566.195312 467.550781 Z M 617.988281 520.664062 C 618.328125 521.632812 619.078125 522.875 620.0625 523.996094 C 623.523438 527.894531 622.957031 528.902344 619.179688 525.5625 C 617.351562 523.96875 615.949219 521.480469 615.445312 519.46875 L 599.636719 512.046875 C 599.382812 511.980469 599.132812 511.859375 598.902344 511.703125 L 576.632812 501.25 L 576.519531 499.550781 C 576.273438 499.75 575.9375 499.996094 575.511719 500.296875 C 573.726562 501.535156 573.832031 502.367188 575.984375 504.25 C 577.46875 505.582031 578.410156 507.265625 578.0625 508.042969 C 577.1875 509.902344 570.984375 503.710938 570.761719 500.777344 C 570.609375 498.789062 571.109375 498.453125 574.167969 498.574219 C 575.265625 498.605469 576.015625 498.640625 576.460938 498.71875 L 572.222656 435.394531 L 553.117188 448.367188 L 554.0625 462.445312 C 555.453125 463.148438 555.488281 463.636719 554.160156 463.90625 L 556.011719 491.527344 L 516.761719 473.050781 L 510.484375 477.3125 C 510.480469 477.53125 510.453125 477.742188 510.371094 477.921875 C 509.957031 478.777344 509.625 478.773438 509.558594 477.941406 L 497.65625 486.023438 L 544.796875 508.179688 C 545.390625 508.09375 546.027344 508.222656 546.566406 508.597656 C 546.859375 508.796875 547.046875 509.03125 547.152344 509.28125 L 557.527344 514.160156 L 558.617188 530.476562 C 559.324219 531.164062 559.351562 531.644531 558.714844 531.925781 L 560.070312 552.253906 C 560.484375 552.273438 560.890625 552.335938 561.261719 552.433594 C 564.753906 553.386719 563.492188 555.140625 560.246094 554.929688 L 562.09375 582.636719 L 581.199219 569.664062 L 579.859375 549.574219 C 578.40625 549.183594 578.339844 548.371094 579.691406 547.039062 L 578.140625 523.84375 L 619.804688 543.453125 L 638.910156 530.484375 L 617.988281 520.664062 " fill-opacity="1" fill-rule="nonzero"/></g></g></g></g><g clip-path="url(#cd8a3ad9c0)"><g clip-path="url(#3ab7b8078e)"><path fill="#e7191f" d="M 384.3125 652.175781 L 397.339844 652.175781 L 397.339844 665.460938 L 384.3125 665.460938 Z M 384.3125 652.175781 " fill-opacity="1" fill-rule="nonzero"/></g></g><g clip-path="url(#dde7c56537)"><g clip-path="url(#2319c9f7fc)"><path fill="#e7191f" d="M 481.027344 696.640625 L 493.925781 696.640625 L 493.925781 709.988281 L 481.027344 709.988281 Z M 481.027344 696.640625 " fill-opacity="1" fill-rule="nonzero"/></g></g><g clip-path="url(#9619b108b8)"><g clip-path="url(#9a70671c88)"><path fill="#e7191f" d="M 604.074219 612.953125 L 617.105469 612.953125 L 617.105469 626.234375 L 604.074219 626.234375 Z M 604.074219 612.953125 " fill-opacity="1" fill-rule="nonzero"/></g></g></svg>