<svg xmlns="http://www.w3.org/2000/svg" viewBox="0 0 32 32" id="ticket"><path fill="none" stroke="#367eff" stroke-linecap="round" stroke-linejoin="round" stroke-width="2" d="m18.22,18.91v-.18m0-2.6v-.18m0-2.59v-.18m-8.69-5.09h6.47c.04,1.31,1.11,2.36,2.43,2.36s2.39-1.05,2.43-2.36h1.61c1.95,0,3.53,1.58,3.53,3.53v8.76c0,1.95-1.58,3.53-3.53,3.53h-1.61c-.04-1.31-1.11-2.36-2.43-2.36s-2.39,1.05-2.43,2.36h-6.47c-1.95,0-3.53-1.58-3.53-3.53v-8.76c0-1.95,1.58-3.53,3.53-3.53Z" class="colorStroke000000 svgStroke"></path></svg>