<svg xmlns="http://www.w3.org/2000/svg" enable-background="new 0 0 32 32" viewBox="0 0 32 32" id="tv"><g fill="#000000" class="color000000 svgShape"><path d="M22.054 3.898c.42-.468.38-1.188-.088-1.607-.469-.42-1.189-.381-1.608.088l-3.498 3.902c.979.016 1.961.057 2.941.13L22.054 3.898zM12.198 6.411c.981-.073 1.962-.113 2.941-.13l-3.497-3.902c-.42-.469-1.139-.508-1.608-.088C9.566 2.711 9.526 3.43 9.946 3.898L12.198 6.411zM26.964 11.613c-.289-2.093-1.926-3.73-4.019-4.019C20.861 7.306 18.533 7.116 16 7.116c-2.033 0-4.383.122-6.976.482-2.077.289-3.701 1.937-3.988 4.014-.288 2.084-.478 4.413-.478 6.945 0 2.032.122 4.383.482 6.976.289 2.077 1.937 3.701 4.014 3.988C11.139 29.81 13.467 30 16 30c2.035 0 4.388-.123 6.985-.484 2.057-.286 3.688-1.917 3.974-3.974.361-2.597.484-4.95.484-6.985C27.442 16.025 27.252 13.697 26.964 11.613zM9.982 27.96c-.593 0-1.074-.481-1.074-1.074 0-.593.481-1.074 1.074-1.074.593 0 1.074.481 1.074 1.074C11.056 27.479 10.575 27.96 9.982 27.96zM13.747 28.209c-.593 0-1.074-.481-1.074-1.074s.481-1.074 1.074-1.074 1.074.481 1.074 1.074S14.34 28.209 13.747 28.209zM24.301 22.19c-.139.86-.794 1.559-1.654 1.691-2.205.339-4.431.51-6.647.51-2.218 0-4.443-.171-6.647-.51-.861-.132-1.515-.831-1.654-1.691-.272-1.684-.409-3.38-.409-5.071 0-1.691.137-3.388.409-5.07.139-.86.794-1.558 1.654-1.691 2.205-.339 4.431-.51 6.647-.51 2.218 0 4.443.171 6.647.51.861.132 1.515.831 1.654 1.691.272 1.683.409 3.379.409 5.07C24.71 18.81 24.573 20.506 24.301 22.19z" fill="#000000" class="color000000 svgShape"></path></g></svg>